<svg width="80" height="80" viewBox="0 0 80 80" fill="none" xmlns="http://www.w3.org/2000/svg">
<g clip-path="url(#clip0_9_1178)">
<path d="M22.8906 0.234379C18.2969 0.968754 14.5156 2.9375 11.2812 6.3125C8.8125 8.89063 7.17187 11.9219 6.25 15.625C5.76562 17.5313 5.65625 21.0938 6 23.2813C7.32812 31.6406 13.5781 38.0937 22.1094 39.9375C23.8281 40.3125 27.7187 40.3125 29.5625 39.9531C35.6094 38.75 40.8281 34.9062 43.6406 29.5625C45.1875 26.6094 45.7812 24.3594 45.8906 20.9219C45.9844 18.1094 45.7344 16.1719 45 13.8906C43.3281 8.79688 39.4531 4.35938 34.6094 2.03125C30.9531 0.265629 26.7187 -0.374996 22.8906 0.234379ZM27.5 6.8125C27.5937 7.03125 27.6562 7.60938 27.6562 8.10938C27.6562 8.65625 27.7344 9.09375 27.8594 9.1875C27.9531 9.26563 28.5781 9.4375 29.2344 9.57813C29.875 9.70313 30.7656 9.98438 31.1875 10.1875C32.1406 10.6406 32.2031 10.9531 31.5938 12.8125C31.0781 14.3594 31.0938 14.3594 29.2187 13.6719C28.2812 13.3281 27.7656 13.2344 26.6406 13.2344C25.0312 13.2188 24.375 13.4688 23.9844 14.2188C23.3281 15.5 24.125 16.3906 27.0469 17.6406C30.7969 19.25 32.0469 20.3438 32.7188 22.6406C33.6094 25.6875 31.9375 28.8594 28.8281 30.0156C28.3125 30.2031 27.7969 30.4375 27.7031 30.5156C27.5625 30.6094 27.5 31.0938 27.5 31.9375C27.5 33.7656 27.375 33.9063 25.7031 33.9063C24.0312 33.9063 23.9062 33.7969 23.9062 32.3281C23.9062 30.875 23.7812 30.6875 22.7812 30.5469C21.5937 30.3906 19.6406 29.75 19.1406 29.3438C18.7812 29.0625 18.7344 28.9219 18.7969 28.4531C18.9219 27.4531 19.5469 25.6094 19.7656 25.5313C19.8906 25.4844 20.5469 25.6563 21.2344 25.9219C22.8437 26.5469 23.75 26.7344 25.0312 26.75C26.9687 26.75 28.2344 25.8125 28.0625 24.4844C27.9219 23.3125 27.2969 22.7813 24.9062 21.7969C21.6562 20.4531 20.1875 19.3906 19.4219 17.8438C19.0312 17.0625 18.9844 16.7813 18.9844 15.4688C18.9844 14.2031 19.0469 13.8594 19.3906 13.125C20.1094 11.6094 21.1562 10.6406 22.8281 10C24.0469 9.53125 24.2187 9.26563 24.2187 7.82813C24.2187 7.15625 24.2656 6.5625 24.3281 6.51563C24.375 6.45313 25.0781 6.40625 25.8906 6.40625C27.3125 6.40625 27.3594 6.42188 27.5 6.8125Z" fill="#E66309"/>
<path d="M57.3594 19.1406C54.5312 19.875 51.8906 21.5 50.6406 23.2812C50.2188 23.8906 49.8281 24.7187 49.5156 25.7344C47.8281 31.1875 46.3125 33.8437 42.9688 37.2031C39.4375 40.75 35.5469 42.875 30.625 43.9375C29.2344 44.2344 28.5156 44.2812 25.8594 44.2812C23.2344 44.2812 22.4844 44.2344 21.1562 43.9375C17.9688 43.25 14.8906 41.9687 12.3906 40.2812L11.1094 39.4062L10.6406 40.6094C9.42188 43.7969 9.01562 46 9.01562 49.375C9.01562 53.4219 9.73438 56.3281 11.7812 60.5469C13.1406 63.3281 14.6406 65.6094 16.4375 67.6719C17.1719 68.5 17.9844 69.5 18.2656 69.9062C19.5781 71.7969 20.5 74.6719 20.7031 77.4062C20.8125 78.7812 20.8594 79 21.25 79.4375L21.6875 79.9219H27.7344H33.7812L34.2344 79.4062C34.6719 78.9219 34.6875 78.8594 34.6875 77.2656V75.6406L35.2031 75.75C35.4688 75.8125 37.375 75.8594 39.4062 75.8594H43.125V77.375C43.125 78.8437 43.1406 78.9219 43.5781 79.4062L44.0312 79.9219L49.9844 79.9687L55.9375 80.0156L56.5 79.4844L57.0781 78.9531L57.1875 76.3906C57.2812 74.0781 57.3438 73.7187 57.7344 72.7344C58.4531 70.9375 59.25 69.875 61.5156 67.6406C65.0781 64.1562 67.4219 60.6406 68.5156 57.1562L68.7969 56.2812L70.375 56.2187C72.25 56.1562 72.9531 55.875 73.6719 54.8594L74.1406 54.1875L74.1875 49.4844C74.2344 44.4375 74.1875 43.9531 73.5 43.125C72.7969 42.2969 72.2812 42.1094 70.4062 42.0312L68.6875 41.9531L68.2031 40.7031C66.8906 37.3281 65 34.5156 62.0781 31.625C60.0469 29.5937 60.0156 29.5625 59.8281 28.6094C59.4375 26.625 59.8281 24.6562 61.0938 22.1719C61.7969 20.7969 61.8281 20.5156 61.4688 19.75C60.9531 18.6719 59.8281 18.5 57.3594 19.1406ZM59.3594 37.8125C59.9375 38.2187 60.4688 39.2187 60.4688 39.9219C60.4688 40.625 59.9375 41.625 59.3594 42.0312C59.0156 42.2812 58.5625 42.4219 57.9844 42.4687C56.9688 42.5312 56.2812 42.1719 55.6562 41.25C55.3438 40.7812 55.2969 40.5625 55.3438 39.7344C55.4062 38.6875 55.6875 38.2344 56.6406 37.625C57.2969 37.2031 58.6562 37.2969 59.3594 37.8125Z" fill="#E66309"/>
</g>
<defs>
<clipPath id="clip0_9_1178">
<rect width="80" height="80" fill="white"/>
</clipPath>
</defs>
</svg>
