<svg width="230" height="77" viewBox="0 0 230 77" fill="none" xmlns="http://www.w3.org/2000/svg">
<rect x="1.68561" y="0.953551" width="226.945" height="74.377" rx="12.3962" fill="#0C0D10"/>
<path d="M156.21 36.6183V40.9875H153.472V43.8528H156.21V53.5885C156.21 56.9129 157.714 58.2427 161.498 58.2427C162.163 58.2427 162.796 58.1635 163.35 58.0685V55.2349C162.875 55.2824 162.574 55.314 162.052 55.314C160.358 55.314 159.614 54.5225 159.614 52.7178V43.8528H163.35V40.9875H159.614V36.6183H156.21Z" fill="white"/>
<path d="M172.988 58.4801C178.022 58.4801 181.109 55.1082 181.109 49.5201C181.109 43.9636 178.006 40.5759 172.988 40.5759C167.954 40.5759 164.851 43.9636 164.851 49.5201C164.851 55.1082 167.938 58.4801 172.988 58.4801ZM172.988 55.4565C170.028 55.4565 168.366 53.2877 168.366 49.5201C168.366 45.7841 170.028 43.5995 172.988 43.5995C175.933 43.5995 177.611 45.7841 177.611 49.5201C177.611 53.2719 175.933 55.4565 172.988 55.4565Z" fill="white"/>
<path d="M183.75 58.1477H187.154V47.9687C187.154 45.5467 188.974 43.9161 191.555 43.9161C192.156 43.9161 193.169 44.0269 193.454 44.1219V40.7659C193.09 40.6709 192.441 40.6234 191.935 40.6234C189.687 40.6234 187.771 41.8582 187.28 43.552H187.027V40.9083H183.75V58.1477Z" fill="white"/>
<path d="M201.905 43.4729C204.422 43.4729 206.069 45.23 206.148 47.937H197.441C197.631 45.2459 199.388 43.4729 201.905 43.4729ZM206.132 53.4935C205.499 54.8391 204.09 55.5832 202.032 55.5832C199.309 55.5832 197.552 53.6677 197.441 50.6441V50.4541H209.615V49.2668C209.615 43.8528 206.718 40.5759 201.921 40.5759C197.061 40.5759 193.974 44.0744 193.974 49.5834C193.974 55.0924 196.998 58.4801 201.937 58.4801C205.879 58.4801 208.633 56.5805 209.409 53.4935H206.132Z" fill="white"/>
<path d="M133.89 51.7815C134.153 56.0147 137.681 58.722 142.931 58.722C148.543 58.722 152.054 55.8834 152.054 51.3549C152.054 47.7944 150.052 45.8254 145.195 44.6933L142.587 44.0534C139.502 43.3315 138.255 42.3634 138.255 40.6734C138.255 38.5404 140.191 37.1457 143.095 37.1457C145.852 37.1457 147.755 38.5076 148.1 40.6898H151.676C151.463 36.7027 147.952 33.897 143.144 33.897C137.976 33.897 134.53 36.7027 134.53 40.9195C134.53 44.398 136.483 46.4653 140.765 47.4662L143.817 48.2046C146.951 48.9429 148.329 50.0258 148.329 51.8307C148.329 53.9309 146.163 55.4568 143.21 55.4568C140.043 55.4568 137.845 54.0293 137.533 51.7815H133.89Z" fill="white"/>
<path d="M98.6332 40.6234C96.2903 40.6234 94.264 41.7948 93.2192 43.7578H92.9659V40.9083H89.689V63.8783H93.0925V55.5357H93.3616C94.264 57.3562 96.2111 58.4326 98.6648 58.4326C103.018 58.4326 105.789 54.9974 105.789 49.5201C105.789 44.0428 103.018 40.6234 98.6332 40.6234ZM97.6675 55.3774C94.818 55.3774 93.0292 53.1294 93.0292 49.5359C93.0292 45.9266 94.818 43.6787 97.6833 43.6787C100.564 43.6787 102.29 45.8791 102.29 49.5201C102.29 53.1769 100.564 55.3774 97.6675 55.3774Z" fill="white"/>
<path d="M117.698 40.6234C115.355 40.6234 113.329 41.7948 112.284 43.7578H112.031V40.9083H108.754V63.8783H112.157V55.5357H112.427C113.329 57.3562 115.276 58.4326 117.73 58.4326C122.083 58.4326 124.853 54.9974 124.853 49.5201C124.853 44.0428 122.083 40.6234 117.698 40.6234ZM116.732 55.3774C113.883 55.3774 112.094 53.1294 112.094 49.5359C112.094 45.9266 113.883 43.6787 116.748 43.6787C119.629 43.6787 121.355 45.8791 121.355 49.5201C121.355 53.1769 119.629 55.3774 116.732 55.3774Z" fill="white"/>
<path d="M83.5824 58.1477H87.4875L78.939 34.4712H74.9847L66.4363 58.1477H70.2101L72.3923 51.8635H81.4166L83.5824 58.1477ZM76.7732 38.7701H77.0521L80.4813 48.7788H73.3276L76.7732 38.7701Z" fill="white"/>
<path d="M68.7224 16.6126V28.0343H72.8462C76.2498 28.0343 78.2207 25.9368 78.2207 22.2879C78.2207 18.6943 76.234 16.6126 72.8462 16.6126H68.7224ZM70.4954 18.2273H72.6484C75.015 18.2273 76.416 19.7312 76.416 22.3116C76.416 24.9315 75.0388 26.4196 72.6484 26.4196H70.4954V18.2273Z" fill="white"/>
<path d="M84.2568 28.2005C86.7739 28.2005 88.3173 26.5146 88.3173 23.7205C88.3173 20.9423 86.7659 19.2484 84.2568 19.2484C81.7398 19.2484 80.1884 20.9423 80.1884 23.7205C80.1884 26.5146 81.7319 28.2005 84.2568 28.2005ZM84.2568 26.6887C82.7767 26.6887 81.9456 25.6043 81.9456 23.7205C81.9456 21.8525 82.7767 20.7602 84.2568 20.7602C85.7291 20.7602 86.5681 21.8525 86.5681 23.7205C86.5681 25.5964 85.7291 26.6887 84.2568 26.6887Z" fill="white"/>
<path d="M101.461 19.4146H99.7596L98.224 25.9922H98.0895L96.3165 19.4146H94.6859L92.9129 25.9922H92.7863L91.2428 19.4146H89.5173L91.8918 28.0343H93.6411L95.4141 21.6863H95.5487L97.3296 28.0343H99.0947L101.461 19.4146Z" fill="white"/>
<path d="M103.421 28.0343H105.123V22.9923C105.123 21.6467 105.922 20.8077 107.181 20.8077C108.439 20.8077 109.041 21.4963 109.041 22.8815V28.0343H110.743V22.4541C110.743 20.404 109.682 19.2484 107.759 19.2484C106.461 19.2484 105.606 19.8262 105.186 20.784H105.06V19.4146H103.421V28.0343Z" fill="white"/>
<path d="M113.423 28.0343H115.125V16.0507H113.423V28.0343Z" fill="white"/>
<path d="M121.525 28.2005C124.042 28.2005 125.585 26.5146 125.585 23.7205C125.585 20.9423 124.034 19.2484 121.525 19.2484C119.008 19.2484 117.456 20.9423 117.456 23.7205C117.456 26.5146 119 28.2005 121.525 28.2005ZM121.525 26.6887C120.045 26.6887 119.214 25.6043 119.214 23.7205C119.214 21.8525 120.045 20.7602 121.525 20.7602C122.997 20.7602 123.836 21.8525 123.836 23.7205C123.836 25.5964 122.997 26.6887 121.525 26.6887Z" fill="white"/>
<path d="M130.656 26.7441C129.73 26.7441 129.057 26.293 129.057 25.5173C129.057 24.7574 129.595 24.3537 130.782 24.2746L132.888 24.14V24.8603C132.888 25.9289 131.938 26.7441 130.656 26.7441ZM130.221 28.1768C131.352 28.1768 132.294 27.686 132.809 26.8233H132.943V28.0343H134.582V22.1454C134.582 20.3249 133.363 19.2484 131.202 19.2484C129.247 19.2484 127.854 20.1982 127.68 21.6784H129.326C129.516 21.0689 130.173 20.7206 131.123 20.7206C132.286 20.7206 132.888 21.2351 132.888 22.1454V22.8894L130.553 23.024C128.503 23.1506 127.347 24.045 127.347 25.5964C127.347 27.1715 128.558 28.1768 130.221 28.1768Z" fill="white"/>
<path d="M140.357 28.1768C141.544 28.1768 142.549 27.6148 143.064 26.6729H143.198V28.0343H144.829V16.0507H143.127V20.784H143C142.533 19.8341 141.536 19.2722 140.357 19.2722C138.18 19.2722 136.779 20.9977 136.779 23.7205C136.779 26.4513 138.164 28.1768 140.357 28.1768ZM140.84 20.7998C142.264 20.7998 143.159 21.9317 143.159 23.7284C143.159 25.5331 142.272 26.6491 140.84 26.6491C139.399 26.6491 138.536 25.5489 138.536 23.7205C138.536 21.9079 139.407 20.7998 140.84 20.7998Z" fill="white"/>
<path d="M155.864 28.2005C158.381 28.2005 159.925 26.5146 159.925 23.7205C159.925 20.9423 158.373 19.2484 155.864 19.2484C153.347 19.2484 151.796 20.9423 151.796 23.7205C151.796 26.5146 153.339 28.2005 155.864 28.2005ZM155.864 26.6887C154.384 26.6887 153.553 25.6043 153.553 23.7205C153.553 21.8525 154.384 20.7602 155.864 20.7602C157.336 20.7602 158.175 21.8525 158.175 23.7205C158.175 25.5964 157.336 26.6887 155.864 26.6887Z" fill="white"/>
<path d="M162.177 28.0343H163.879V22.9923C163.879 21.6467 164.679 20.8077 165.937 20.8077C167.196 20.8077 167.797 21.4963 167.797 22.8815V28.0343H169.499V22.4541C169.499 20.404 168.438 19.2484 166.515 19.2484C165.217 19.2484 164.362 19.8262 163.943 20.784H163.816V19.4146H162.177V28.0343Z" fill="white"/>
<path d="M177.337 17.2696V19.4542H175.967V20.8869H177.337V25.7547C177.337 27.4169 178.089 28.0818 179.98 28.0818C180.313 28.0818 180.629 28.0422 180.906 27.9947V26.5779C180.669 26.6016 180.519 26.6175 180.257 26.6175C179.41 26.6175 179.038 26.2217 179.038 25.3194V20.8869H180.906V19.4542H179.038V17.2696H177.337Z" fill="white"/>
<path d="M183.191 28.0343H184.893V23.0002C184.893 21.6942 185.668 20.8156 187.061 20.8156C188.264 20.8156 188.906 21.5122 188.906 22.8894V28.0343H190.607V22.4699C190.607 20.4199 189.475 19.2563 187.639 19.2563C186.341 19.2563 185.431 19.8341 185.011 20.7998H184.877V16.0507H183.191V28.0343Z" fill="white"/>
<path d="M196.746 20.6969C198.005 20.6969 198.828 21.5755 198.868 22.929H194.514C194.609 21.5834 195.488 20.6969 196.746 20.6969ZM198.86 25.7072C198.543 26.38 197.839 26.752 196.81 26.752C195.448 26.752 194.57 25.7943 194.514 24.2825V24.1875H200.601V23.5939C200.601 20.8869 199.153 19.2484 196.754 19.2484C194.324 19.2484 192.781 20.9977 192.781 23.7522C192.781 26.5067 194.293 28.2005 196.762 28.2005C198.733 28.2005 200.11 27.2507 200.498 25.7072H198.86Z" fill="white"/>
<path d="M47.969 38.7158C48.0103 35.51 49.732 32.4765 52.4632 30.7974C50.7402 28.3366 47.8542 26.7764 44.8517 26.6825C41.6492 26.3463 38.5445 28.5988 36.9126 28.5988C35.2491 28.5988 32.7365 26.7158 30.0308 26.7715C26.5041 26.8855 23.2163 28.8905 21.5005 31.9738C17.8122 38.3596 20.5633 47.7446 24.0964 52.9063C25.8641 55.4339 27.9301 58.2573 30.6333 58.1572C33.2785 58.0475 34.2665 56.4704 37.4596 56.4704C40.623 56.4704 41.5499 58.1572 44.308 58.0935C47.1465 58.0474 48.9349 55.5547 50.6405 53.0032C51.9106 51.2022 52.8879 49.2117 53.5363 47.1055C50.2006 45.6946 47.9729 42.3376 47.969 38.7158Z" fill="white"/>
<path d="M42.7595 23.2878C44.3071 21.4299 45.0696 19.0419 44.885 16.6309C42.5205 16.8792 40.3363 18.0093 38.7678 19.7959C37.2339 21.5415 36.4357 23.8876 36.5866 26.2064C38.9519 26.2308 41.2773 25.1313 42.7595 23.2878Z" fill="white"/>
<rect x="1.68561" y="0.953551" width="226.945" height="74.377" rx="12.3962" stroke="#A6A6A6" stroke-width="1.9071"/>
</svg>
