<svg width="135" height="41" viewBox="0 0 135 41" fill="none" xmlns="http://www.w3.org/2000/svg">
<g filter="url(#filter0_b_829_1801)">
<path d="M0.5 0.328613H114.5C125.546 0.328613 134.5 9.28292 134.5 20.3286C134.5 31.3743 125.546 40.3286 114.5 40.3286H0.5V0.328613Z" fill="white"/>
<path d="M35.5 21.1592L33.7067 18.9351L35.0259 16.4407L32.6518 15.0304L33.0213 12.2098L30.2791 11.776L29.593 9.00993L26.9031 9.66095L25.3211 7.32861L23 8.90167L20.6796 7.32861L19.0969 9.66095L16.407 9.00993L15.7216 11.776L12.9787 12.2098L13.3482 15.0304L10.9748 16.4407L12.2933 18.9351L10.5 21.1592L12.6628 23.0032L11.7662 25.7149L14.4031 26.6369L14.5614 29.512L17.3036 29.403L18.4645 32.0064L20.9955 30.8678L23 32.8746L25.0045 30.8678L27.5362 32.0064L28.6964 29.403L31.4393 29.512L31.5976 26.6369L34.2345 25.7149L33.3379 23.0032L35.5 21.1592Z" fill="#FCC153"/>
<path d="M23.0007 29.024C27.8072 29.024 31.7036 25.0173 31.7036 20.0747C31.7036 15.1321 27.8072 11.1254 23.0007 11.1254C18.1943 11.1254 14.2979 15.1321 14.2979 20.0747C14.2979 25.0173 18.1943 29.024 23.0007 29.024Z" fill="#FF9330"/>
<path d="M21.468 24.3589L17.7762 20.5625C17.4066 20.1825 17.4066 19.586 17.7762 19.2067C18.1457 18.8274 18.7258 18.8267 19.0946 19.2067L21.521 21.7018L26.9532 16.1158C27.3227 15.7358 27.9028 15.7358 28.2716 16.1158C28.6412 16.4958 28.6412 17.0923 28.2716 17.4716L21.4673 24.3596L21.468 24.3589Z" fill="#F7F7F7"/>
<path d="M44.06 20.5016C44.06 19.4029 44.3053 18.4216 44.796 17.5576C45.2973 16.6829 45.9747 16.0056 46.828 15.5256C47.692 15.0349 48.6573 14.7896 49.724 14.7896C50.972 14.7896 52.0653 15.1096 53.004 15.7496C53.9427 16.3896 54.5987 17.2749 54.972 18.4056H52.396C52.14 17.8722 51.7773 17.4722 51.308 17.2056C50.8493 16.9389 50.316 16.8056 49.708 16.8056C49.0573 16.8056 48.476 16.9602 47.964 17.2696C47.4627 17.5682 47.068 17.9949 46.78 18.5496C46.5027 19.1042 46.364 19.7549 46.364 20.5016C46.364 21.2376 46.5027 21.8882 46.78 22.4536C47.068 23.0082 47.4627 23.4402 47.964 23.7496C48.476 24.0482 49.0573 24.1976 49.708 24.1976C50.316 24.1976 50.8493 24.0642 51.308 23.7976C51.7773 23.5202 52.14 23.1149 52.396 22.5816H54.972C54.5987 23.7229 53.9427 24.6136 53.004 25.2536C52.076 25.8829 50.9827 26.1976 49.724 26.1976C48.6573 26.1976 47.692 25.9576 46.828 25.4776C45.9747 24.9869 45.2973 24.3096 44.796 23.4456C44.3053 22.5816 44.06 21.6002 44.06 20.5016ZM65.1253 21.4776C65.1253 21.7976 65.1039 22.0856 65.0613 22.3416H58.5813C58.6346 22.9816 58.8586 23.4829 59.2533 23.8456C59.6479 24.2082 60.1333 24.3896 60.7093 24.3896C61.5413 24.3896 62.1333 24.0322 62.4853 23.3176H64.9013C64.6453 24.1709 64.1546 24.8749 63.4293 25.4296C62.7039 25.9736 61.8133 26.2456 60.7573 26.2456C59.9039 26.2456 59.1359 26.0589 58.4533 25.6856C57.7813 25.3016 57.2533 24.7629 56.8693 24.0696C56.4959 23.3762 56.3092 22.5762 56.3092 21.6696C56.3092 20.7522 56.4959 19.9469 56.8693 19.2536C57.2426 18.5602 57.7653 18.0269 58.4373 17.6536C59.1093 17.2802 59.8826 17.0936 60.7573 17.0936C61.5999 17.0936 62.3519 17.2749 63.0133 17.6376C63.6853 18.0002 64.2026 18.5176 64.5653 19.1896C64.9386 19.8509 65.1253 20.6136 65.1253 21.4776ZM62.8053 20.8376C62.7946 20.2616 62.5866 19.8029 62.1813 19.4616C61.7759 19.1096 61.2799 18.9336 60.6933 18.9336C60.1386 18.9336 59.6693 19.1042 59.2853 19.4456C58.9119 19.7762 58.6826 20.2402 58.5973 20.8376H62.8053ZM69.0003 18.6136C69.2883 18.1442 69.6616 17.7762 70.1203 17.5096C70.5896 17.2429 71.1229 17.1096 71.7203 17.1096V19.4616H71.1283C70.4243 19.4616 69.8909 19.6269 69.5283 19.9576C69.1763 20.2882 69.0003 20.8642 69.0003 21.6856V26.1016H66.7603V17.2376H69.0003V18.6136ZM75.837 19.0776V23.3656C75.837 23.6642 75.9063 23.8829 76.045 24.0216C76.1943 24.1496 76.4397 24.2136 76.781 24.2136H77.821V26.1016H76.413C74.525 26.1016 73.581 25.1842 73.581 23.3496V19.0776H72.525V17.2376H73.581V15.0456H75.837V17.2376H77.821V19.0776H75.837ZM80.5681 16.1816C80.1735 16.1816 79.8428 16.0589 79.5761 15.8136C79.3201 15.5576 79.1921 15.2429 79.1921 14.8696C79.1921 14.4962 79.3201 14.1869 79.5761 13.9416C79.8428 13.6856 80.1735 13.5576 80.5681 13.5576C80.9628 13.5576 81.2881 13.6856 81.5441 13.9416C81.8108 14.1869 81.9441 14.4962 81.9441 14.8696C81.9441 15.2429 81.8108 15.5576 81.5441 15.8136C81.2881 16.0589 80.9628 16.1816 80.5681 16.1816ZM81.6721 17.2376V26.1016H79.4321V17.2376H81.6721ZM87.9493 19.0776H86.3973V26.1016H84.1253V19.0776H83.1173V17.2376H84.1253V16.7896C84.1253 15.7016 84.4346 14.9016 85.0533 14.3896C85.6719 13.8776 86.6053 13.6376 87.8533 13.6696V15.5576C87.3093 15.5469 86.9306 15.6376 86.7173 15.8296C86.5039 16.0216 86.3973 16.3682 86.3973 16.8696V17.2376H87.9493V19.0776ZM90.5369 16.1816C90.1422 16.1816 89.8115 16.0589 89.5449 15.8136C89.2889 15.5576 89.1609 15.2429 89.1609 14.8696C89.1609 14.4962 89.2889 14.1869 89.5449 13.9416C89.8115 13.6856 90.1422 13.5576 90.5369 13.5576C90.9315 13.5576 91.2569 13.6856 91.5129 13.9416C91.7795 14.1869 91.9129 14.4962 91.9129 14.8696C91.9129 15.2429 91.7795 15.5576 91.5129 15.8136C91.2569 16.0589 90.9315 16.1816 90.5369 16.1816ZM91.6409 17.2376V26.1016H89.4009V17.2376H91.6409ZM102.094 21.4776C102.094 21.7976 102.073 22.0856 102.03 22.3416H95.55C95.6033 22.9816 95.8273 23.4829 96.222 23.8456C96.6167 24.2082 97.102 24.3896 97.678 24.3896C98.51 24.3896 99.102 24.0322 99.454 23.3176H101.87C101.614 24.1709 101.123 24.8749 100.398 25.4296C99.6727 25.9736 98.782 26.2456 97.726 26.2456C96.8727 26.2456 96.1047 26.0589 95.422 25.6856C94.75 25.3016 94.222 24.7629 93.838 24.0696C93.4647 23.3762 93.278 22.5762 93.278 21.6696C93.278 20.7522 93.4647 19.9469 93.838 19.2536C94.2113 18.5602 94.734 18.0269 95.406 17.6536C96.078 17.2802 96.8513 17.0936 97.726 17.0936C98.5687 17.0936 99.3207 17.2749 99.982 17.6376C100.654 18.0002 101.171 18.5176 101.534 19.1896C101.907 19.8509 102.094 20.6136 102.094 21.4776ZM99.774 20.8376C99.7633 20.2616 99.5553 19.8029 99.15 19.4616C98.7447 19.1096 98.2487 18.9336 97.662 18.9336C97.1073 18.9336 96.638 19.1042 96.254 19.4456C95.8807 19.7762 95.6513 20.2402 95.566 20.8376H99.774ZM103.153 21.6376C103.153 20.7416 103.329 19.9469 103.681 19.2536C104.044 18.5602 104.534 18.0269 105.153 17.6536C105.772 17.2802 106.46 17.0936 107.217 17.0936C107.793 17.0936 108.342 17.2216 108.865 17.4776C109.388 17.7229 109.804 18.0536 110.113 18.4696V14.2616H112.385V26.1016H110.113V24.7896C109.836 25.2269 109.446 25.5789 108.945 25.8456C108.444 26.1122 107.862 26.2456 107.201 26.2456C106.454 26.2456 105.772 26.0536 105.153 25.6696C104.534 25.2856 104.044 24.7469 103.681 24.0536C103.329 23.3496 103.153 22.5442 103.153 21.6376ZM110.129 21.6696C110.129 21.1256 110.022 20.6616 109.809 20.2776C109.596 19.8829 109.308 19.5842 108.945 19.3816C108.582 19.1682 108.193 19.0616 107.777 19.0616C107.361 19.0616 106.977 19.1629 106.625 19.3656C106.273 19.5682 105.985 19.8669 105.761 20.2616C105.548 20.6456 105.441 21.1042 105.441 21.6376C105.441 22.1709 105.548 22.6402 105.761 23.0456C105.985 23.4402 106.273 23.7442 106.625 23.9576C106.988 24.1709 107.372 24.2776 107.777 24.2776C108.193 24.2776 108.582 24.1762 108.945 23.9736C109.308 23.7602 109.596 23.4616 109.809 23.0776C110.022 22.6829 110.129 22.2136 110.129 21.6696Z" fill="#5F5F5F"/>
</g>
<defs>
<filter id="filter0_b_829_1801" x="-4.16667" y="-4.33805" width="143.333" height="49.3333" filterUnits="userSpaceOnUse" color-interpolation-filters="sRGB">
<feFlood flood-opacity="0" result="BackgroundImageFix"/>
<feGaussianBlur in="BackgroundImageFix" stdDeviation="2.33333"/>
<feComposite in2="SourceAlpha" operator="in" result="effect1_backgroundBlur_829_1801"/>
<feBlend mode="normal" in="SourceGraphic" in2="effect1_backgroundBlur_829_1801" result="shape"/>
</filter>
</defs>
</svg>
