<svg width="43" height="43" viewBox="0 0 43 43" fill="none" xmlns="http://www.w3.org/2000/svg">
<circle cx="21.5" cy="21.3289" r="21" fill="#F0F0F0"/>
<g clip-path="url(#clip0_829_188)">
<path d="M11.4225 12.7156C11.0041 12.9535 10.8811 13.4949 11.1518 13.8804C11.2174 13.9748 11.3527 14.0896 11.4717 14.147C11.6686 14.2496 11.6973 14.2537 12.6488 14.266L13.625 14.2824V14.6884V15.0945H12.6939C12.1689 15.0945 11.6891 15.115 11.6029 15.1396C11.2789 15.2298 11 15.5949 11 15.9353C11 16.2757 11.283 16.6449 11.6152 16.7351C11.6932 16.7597 12.1771 16.7761 12.6939 16.7761H13.625V17.1822V17.5882L12.6324 17.6046L11.6357 17.6169L11.4389 17.7318C11.0328 17.9738 10.8975 18.3921 11.1025 18.8064C11.1887 18.991 11.2543 19.0566 11.4225 19.155L11.6357 19.2781H12.6324H13.625V19.7087V20.1394H12.6529C11.5578 20.1394 11.4635 20.1599 11.2174 20.4388C10.8605 20.8449 10.9713 21.4273 11.4512 21.698C11.6316 21.7964 11.6562 21.8005 12.6324 21.8128L13.625 21.8292V22.2353V22.6414H12.698C11.6809 22.6414 11.5414 22.6619 11.3035 22.8587C10.8318 23.2525 10.9385 23.9785 11.5127 24.2451C11.6562 24.3107 11.7916 24.323 12.6529 24.323H13.625V24.7537V25.1843H12.6283C11.6604 25.1843 11.6234 25.1884 11.4471 25.2787C11.3486 25.332 11.2133 25.455 11.1436 25.5494C11.041 25.697 11.0205 25.7626 11.0205 25.9759C11.0205 26.2958 11.1271 26.5132 11.365 26.6814L11.5414 26.8044L12.5832 26.8167L13.625 26.8291V27.2556V27.6863H12.6611C11.6111 27.6863 11.5086 27.7027 11.2707 27.9242C10.8441 28.3261 10.9426 28.9742 11.4717 29.2572C11.6316 29.3433 11.6768 29.3474 13.1943 29.3474H14.7529L14.9457 29.2326C15.0729 29.1587 15.1795 29.0521 15.2533 28.925L15.3682 28.7322V21.0007C15.3682 16.7474 15.3559 13.2201 15.3354 13.1585C15.2902 12.9945 15.0646 12.7566 14.876 12.6705C14.7283 12.6007 14.5725 12.5925 13.1738 12.5925H11.6357L11.4225 12.7156Z" fill="#1D1D1D"/>
<path d="M18.7107 12.6828C18.4564 12.8222 18.2924 13.0642 18.2677 13.339C18.2554 13.5359 18.399 14.0158 19.8345 18.4537L21.4136 23.3468L20.9994 23.8267L20.581 24.3107L20.3554 24.2369C19.5597 23.9908 18.7353 24.0523 17.9847 24.4091C16.6271 25.0572 15.9463 26.5666 16.3892 27.9529C16.5369 28.4205 16.7543 28.765 17.1316 29.1423C17.7674 29.774 18.4728 30.0652 19.3875 30.0652C19.8345 30.0652 20.1873 29.9996 20.5933 29.8355C21.389 29.5238 22.0658 28.806 22.3447 27.9939C22.4883 27.5714 22.5252 26.8701 22.4267 26.4476C22.357 26.1482 22.1724 25.7052 22.0371 25.5166C21.9879 25.4509 21.9509 25.3853 21.9509 25.3771C21.9509 25.3197 23.366 23.7324 23.7269 23.3837L24.1248 22.9982L24.5226 23.3837C24.8795 23.7242 26.2986 25.3197 26.2986 25.3771C26.2986 25.3853 26.2617 25.4509 26.2125 25.5166C26.0771 25.7052 25.8926 26.1482 25.8228 26.4476C25.7203 26.8742 25.7613 27.5673 25.909 28.0103C26.1797 28.806 26.84 29.4992 27.6521 29.8314C28.05 29.9955 28.4068 30.0652 28.8621 30.0652C29.7767 30.0652 30.4822 29.774 31.1179 29.1423C31.6634 28.5968 31.9383 28.0021 31.9875 27.2597C32.049 26.3082 31.5978 25.332 30.8226 24.7455C29.9941 24.1138 28.899 23.9251 27.8941 24.2369L27.6685 24.3107L27.2502 23.8267L26.8359 23.3468L28.415 18.4537C30.1746 13.0027 30.0967 13.3103 29.8424 12.9535C29.5511 12.5392 28.8867 12.4654 28.5217 12.8058C28.4724 12.855 27.4676 14.4423 26.2904 16.3332C25.1174 18.224 24.1371 19.7662 24.1166 19.7621C24.0961 19.7539 23.1158 18.1994 21.9386 16.3044C19.531 12.4326 19.6746 12.6294 19.1701 12.6007C18.9404 12.5884 18.8666 12.6007 18.7107 12.6828ZM20.0068 25.9226C20.6426 26.2343 20.9256 27.0013 20.6261 27.6125C20.4785 27.916 20.1832 28.1826 19.8756 28.2974C19.3629 28.4943 18.7066 28.3507 18.3621 27.9693C18.0422 27.6125 17.9273 27.1039 18.075 26.665C18.198 26.2876 18.6287 25.9062 19.0552 25.7955C19.3054 25.7298 19.732 25.7873 20.0068 25.9226ZM29.3174 25.8447C29.5511 25.9185 29.6332 25.9718 29.8465 26.181C30.1664 26.5009 30.2566 26.7347 30.2279 27.1695C30.1828 27.8791 29.6209 28.3835 28.8826 28.3835C28.333 28.3835 27.8613 28.0923 27.6234 27.6125C27.3486 27.0464 27.5824 26.3 28.1361 25.9759C28.5217 25.7503 28.8826 25.7093 29.3174 25.8447Z" fill="#1D1D1D"/>
</g>
<defs>
<clipPath id="clip0_829_188">
<rect width="21" height="21" fill="white" transform="translate(11 10.8289)"/>
</clipPath>
</defs>
</svg>
