<svg width="20" height="11" viewBox="0 0 20 11" fill="none" xmlns="http://www.w3.org/2000/svg">
<path d="M10.8971 10.2409C10.637 10.501 10.2843 10.647 9.91652 10.647C9.54876 10.647 9.19606 10.501 8.93597 10.2409L1.09016 2.39514C0.957694 2.2672 0.852035 2.11416 0.779348 1.94495C0.706661 1.77574 0.668401 1.59375 0.6668 1.40959C0.6652 1.22544 0.700292 1.04281 0.770028 0.872362C0.839763 0.701915 0.942746 0.547061 1.07297 0.41684C1.20319 0.286618 1.35804 0.183635 1.52849 0.113899C1.69894 0.0441634 1.88157 0.00907223 2.06572 0.0106725C2.24988 0.0122727 2.43187 0.0505327 2.60108 0.12322C2.77029 0.195907 2.92333 0.301565 3.05127 0.43403L9.91652 7.29929L16.7818 0.43403C17.0434 0.181392 17.3937 0.0415977 17.7573 0.0447577C18.121 0.0479177 18.4688 0.193778 18.726 0.450925C18.9831 0.708071 19.129 1.05593 19.1322 1.41958C19.1353 1.78322 18.9955 2.13356 18.7429 2.39514L10.8971 10.2409Z" fill="#131217"/>
<path d="M10.8971 10.2409C10.637 10.501 10.2843 10.647 9.91652 10.647C9.54876 10.647 9.19606 10.501 8.93597 10.2409L1.09016 2.39514C0.957694 2.2672 0.852035 2.11416 0.779348 1.94495C0.706661 1.77574 0.668401 1.59375 0.6668 1.40959C0.6652 1.22544 0.700292 1.04281 0.770028 0.872362C0.839763 0.701915 0.942746 0.547061 1.07297 0.41684C1.20319 0.286618 1.35804 0.183635 1.52849 0.113899C1.69894 0.0441634 1.88157 0.00907223 2.06572 0.0106725C2.24988 0.0122727 2.43187 0.0505327 2.60108 0.12322C2.77029 0.195907 2.92333 0.301565 3.05127 0.43403L9.91652 7.29929L16.7818 0.43403C17.0434 0.181392 17.3937 0.0415977 17.7573 0.0447577C18.121 0.0479177 18.4688 0.193778 18.726 0.450925C18.9831 0.708071 19.129 1.05593 19.1322 1.41958C19.1353 1.78322 18.9955 2.13356 18.7429 2.39514L10.8971 10.2409Z" stroke="#131217"/>
</svg>
