<svg width="23" height="16" viewBox="0 0 23 16" fill="none" xmlns="http://www.w3.org/2000/svg">
<path d="M12.972 3.87097L0.958252 3.87097M22.3161 3.87097L20.3138 3.87097" stroke="#131217" stroke-width="1.24487" stroke-linecap="round" stroke-linejoin="round"/>
<path d="M20.301 3.87139C20.301 2.08418 18.8069 0.635354 16.9639 0.635354C15.1208 0.635354 13.6267 2.08418 13.6267 3.87139C13.6267 5.6586 15.1208 7.10742 16.9639 7.10742C18.8069 7.10742 20.301 5.6586 20.301 3.87139Z" stroke="#131217" stroke-width="1.24487" stroke-linecap="round" stroke-linejoin="round"/>
<path d="M2.29312 11.6373L0.958252 11.6373M22.3161 11.6373L18.3115 11.6373L10.3023 11.6373" stroke="#131217" stroke-width="1.24487" stroke-linecap="round" stroke-linejoin="round"/>
<path d="M9.62622 11.6374C9.62622 9.85017 8.13213 8.40135 6.28906 8.40135C4.446 8.40135 2.9519 9.85017 2.9519 11.6374C2.9519 13.4246 4.446 14.8734 6.28906 14.8734C8.13213 14.8734 9.62622 13.4246 9.62622 11.6374Z" stroke="#131217" stroke-width="1.24487" stroke-linecap="round" stroke-linejoin="round"/>
</svg>
