<svg width="80" height="80" viewBox="0 0 80 80" fill="none" xmlns="http://www.w3.org/2000/svg">
<path d="M39.0156 3.65626C38.6719 3.78126 38.25 4.01563 38.0781 4.18751C37.8906 4.34376 30.0938 10.9375 20.75 18.8125C7.21875 30.2031 3.6875 33.2656 3.42188 33.7813C2.75 35.1094 3.21875 36.7969 4.51563 37.6719C5.0625 38.0313 5.20313 38.0469 8 38.0938L10.9375 38.1406L10.9688 56.1406C11.0156 76.1563 10.9375 74.7344 12.0781 75.7344C12.3906 76.0156 12.9063 76.3125 13.2344 76.3906C14.0625 76.625 65.9375 76.625 66.7656 76.3906C67.0938 76.3125 67.6094 76.0156 67.9219 75.7344C69.0625 74.7344 68.9844 76.1563 69.0312 56.125L69.0625 38.125H71.7812C74.7969 38.125 75.2031 38.0313 76.0469 37.1563C76.6719 36.5156 76.875 35.9688 76.875 35.0313C76.875 33.7188 76.5469 33.375 70.8594 28.5781L65.5469 24.0938L65.4688 17.375C65.3906 10.8594 65.375 10.6406 65.0625 10.2031C64.8906 9.96876 64.5 9.60938 64.2188 9.40626C63.7188 9.07813 63.6094 9.06251 59.3906 9.06251C55.4844 9.06251 55.0156 9.09376 54.5313 9.35938C53.5625 9.87501 53.375 10.2969 53.2813 12.0938L53.2031 13.7031L47.5 8.89063C44.3594 6.23438 41.5781 3.96876 41.3125 3.84376C40.5781 3.48438 39.6719 3.40626 39.0156 3.65626ZM41.3281 27.9844C47.3281 28.7188 52.1875 32.9219 53.7656 38.7344C54.2656 40.5625 54.3281 43.0469 53.9375 44.7031C52.9063 48.9688 49.25 55.6875 43.6719 63.5156C41.5781 66.4375 41.2344 66.7188 39.5625 66.7188C37.8281 66.7188 37.4219 66.2969 33.5313 60.4688C30.625 56.125 29.625 54.4531 27.8906 51.0156C26.3594 47.9844 25.4219 45.4375 25.1406 43.5469C24.7656 41.0781 25.5938 37.5469 27.125 34.9688C27.9531 33.5938 30.0625 31.3125 31.2656 30.5C33.2031 29.1875 35.75 28.2344 37.9531 27.9688C39.4844 27.7969 39.7813 27.7969 41.3281 27.9844Z" fill="#E66309"/>
<path d="M37.8594 34.9063C36.2344 35.4375 34.8281 36.6875 34.0938 38.25C33.7188 39.0313 33.6719 39.3438 33.6719 40.7031C33.6719 42.0781 33.7188 42.375 34.0938 43.1563C35.9063 47.0156 40.9531 47.9688 43.9063 45C46.3125 42.6094 46.2969 38.7344 43.875 36.375C42.7188 35.25 41.625 34.7969 39.9219 34.7344C39.0313 34.7031 38.2813 34.7656 37.8594 34.9063Z" fill="#E66309"/>
</svg>
