<svg width="43" height="43" viewBox="0 0 43 43" fill="none" xmlns="http://www.w3.org/2000/svg">
<circle cx="21.5" cy="21.3289" r="21" fill="#F0F0F0"/>
<g clip-path="url(#clip0_829_152)">
<path d="M20.2601 11.3778C20.1398 11.4229 19.0983 12.3516 15.6506 15.491C10.714 19.9876 11.0186 19.6831 11.0186 20.1719C11.0223 20.5779 11.2291 20.9013 11.6013 21.0705C11.7517 21.1381 11.8608 21.1494 12.5676 21.1607L13.3684 21.1757V25.1648C13.3684 29.6202 13.3496 29.3194 13.6278 29.5036L13.7557 29.5901H16.301H18.8464L18.9742 29.5036C19.2449 29.3231 19.2337 29.4397 19.2337 26.7026V24.2512H20.6248H22.0159V26.7026C22.0159 29.4397 22.0046 29.3231 22.2753 29.5036L22.4031 29.5901H24.9485H27.4939L27.6217 29.5036C27.8999 29.3194 27.8811 29.6202 27.8811 25.1648V21.1757L28.6819 21.1607C29.3888 21.1494 29.4978 21.1381 29.6482 21.0705C30.0204 20.9013 30.2272 20.5779 30.231 20.1719C30.231 19.6831 30.5355 19.9876 25.6027 15.4947C20.7864 11.1071 21.0346 11.3139 20.6097 11.3214C20.5045 11.3214 20.3465 11.3477 20.2601 11.3778Z" fill="#1D1D1D"/>
<path d="M24.0086 12.5017C24.0387 12.5317 25.0124 13.4153 26.1704 14.468L28.2759 16.3855L28.2872 14.6334C28.2985 12.6821 28.2985 12.7047 28.0353 12.5317L27.9075 12.4453H25.9298C24.2003 12.4453 23.9635 12.4528 24.0086 12.5017Z" fill="#1D1D1D"/>
</g>
<defs>
<clipPath id="clip0_829_152">
<rect width="19.25" height="19.25" fill="white" transform="translate(11 10.8289)"/>
</clipPath>
</defs>
</svg>
