<svg width="90" height="90" viewBox="0 0 90 90" fill="none" xmlns="http://www.w3.org/2000/svg">
<rect width="90" height="90" rx="16" fill="#E66309" fill-opacity="0.07"/>
<path d="M35.4788 26.6619C35.4373 26.7033 35.4063 27.4699 35.4063 28.3711C35.4063 30.1736 35.3855 30.1218 36.1418 30.1218H36.5458V31.0024V31.8829H35.2819C34.2046 31.8829 33.956 31.914 33.5623 32.1004C32.9408 32.4112 32.5057 33.0846 32.5057 33.7683V34.2655H36.9083H41.311V33.9754C41.311 33.4989 41.1142 32.9395 40.8241 32.5977C40.3787 32.0694 39.8503 31.8829 38.7523 31.8829H37.7889V31.0024V30.1218H38.1929C38.9077 30.1218 38.9284 30.0907 38.9284 29.1791V28.3608H40.1611C41.3731 28.3608 41.4042 28.3711 41.6114 28.6301C41.7564 28.8062 41.829 29.0652 41.829 29.3345C41.829 29.8214 41.8911 29.9354 42.2226 30.1115C42.4919 30.2565 42.8027 30.1322 42.9788 29.7903C43.1135 29.5314 43.0203 28.6612 42.8131 28.2572C42.5955 27.8428 41.9947 27.3559 41.5493 27.2316C41.3317 27.1695 40.6584 27.1177 40.0472 27.1177C38.9802 27.1177 38.9387 27.1073 38.9077 26.8794C38.8766 26.6515 38.8455 26.6515 37.2088 26.6204C36.2971 26.6101 35.5202 26.6308 35.4788 26.6619Z" fill="#E66309"/>
<path d="M30.7446 36.1923C29.0561 36.6274 27.4193 37.943 26.6734 39.4555C25.9587 40.9161 25.9794 40.3049 25.9794 54.1344V66.5862L32.4746 66.5655L38.9802 66.5344L39.0527 65.9128C39.2909 64.0067 40.3683 61.7692 41.8289 60.1324L42.3676 59.5419H37.0948C33.1272 59.5316 31.7909 59.5005 31.6666 59.4073C31.2626 59.0965 31.2626 59.0343 31.2626 51.6171C31.2626 43.9824 31.2626 43.941 31.7287 43.7545C31.822 43.7234 35.4684 43.6924 39.8193 43.6924H47.7337V42.5218C47.7337 41.8173 47.6715 41.1129 47.5783 40.7607C47.0085 38.5853 45.1024 36.6895 42.9477 36.1819C42.005 35.9644 31.5941 35.9644 30.7446 36.1923Z" fill="#E66309"/>
<path d="M54.519 40.7814C53.048 41.1647 52.1674 42.7497 52.644 44.1689C53.3898 46.4168 56.4354 46.6136 57.5335 44.5004C57.7614 44.0549 57.8339 43.1537 57.6785 42.6046C57.5231 42.0452 56.8809 41.2787 56.3318 40.999C55.876 40.7711 54.9748 40.6571 54.519 40.7814Z" fill="#E66309"/>
<path d="M63.0031 43.2159C60.7862 43.9306 60.0611 46.7173 61.6046 48.4887C61.7911 48.6959 62.2262 49.0066 62.568 49.1828C63.1067 49.4521 63.3139 49.4935 63.9976 49.4935C64.6813 49.4935 64.8885 49.4521 65.4375 49.1724C67.8098 47.9914 67.7787 44.6351 65.3961 43.4127C64.7745 43.0915 63.6557 42.9983 63.0031 43.2159Z" fill="#E66309"/>
<path d="M33.0237 51.6172V57.7809H39.0113H44.9885L45.6204 57.5115L46.242 57.2526L46.2005 56.1441C46.1384 54.4349 46.501 53.1089 47.4333 51.6586L47.7337 51.1821V48.3229V45.4534H40.3787H33.0237V51.6172Z" fill="#E66309"/>
<path d="M52.8822 50.115C51.5148 50.3533 50.5928 50.8298 49.5983 51.814C48.552 52.8499 47.9409 54.3209 47.9409 55.8333C47.9409 56.8485 47.8994 56.8174 48.9871 56.7035C50.0541 56.5895 51.4941 56.7242 52.6128 57.0453L53.2758 57.2318L53.9181 56.631C55.2855 55.3672 57.202 54.5695 58.9423 54.5695C59.2738 54.5695 59.3152 54.5488 59.2635 54.3312C59.1288 53.7926 58.4969 52.6116 58.0825 52.1247C57.2745 51.182 56.1143 50.4569 55.0576 50.229C54.3325 50.0736 53.4105 50.0218 52.8822 50.115Z" fill="#E66309"/>
<path d="M57.8235 56.4756C57.4817 56.5585 56.8912 56.776 56.5286 56.9521C55.8657 57.2836 55.0887 57.843 55.0887 57.9673C55.0887 58.0088 55.3788 58.2263 55.7413 58.4542C57.2227 59.3969 58.9009 61.3444 59.6468 62.9915C60.0301 63.841 60.4341 65.198 60.5273 65.9957L60.5998 66.5862H61.615C62.8167 66.5862 62.9099 66.5344 63.6972 65.4156C65.2304 63.2298 65.0543 60.2774 63.2621 58.2677C61.9361 56.776 59.7193 56.0405 57.8235 56.4756Z" fill="#E66309"/>
<path d="M48.5106 58.506C45.3304 59.0033 42.6473 61.0751 41.4042 63.9964C41.0831 64.763 40.793 65.83 40.793 66.2961V66.5862H49.8055C57.8857 66.5862 58.818 66.5655 58.818 66.4204C58.818 66.0993 58.4865 64.8044 58.2379 64.1828C57.6474 62.6704 56.3836 61.0647 55.0162 60.1013C54.1978 59.5109 53.0169 58.9618 52.0017 58.7028C51.0694 58.4646 49.3912 58.3713 48.5106 58.506Z" fill="#E66309"/>
</svg>
