<svg width="90" height="90" viewBox="0 0 90 90" fill="none" xmlns="http://www.w3.org/2000/svg">
<rect width="90" height="90" rx="16" fill="#E66309" fill-opacity="0.07"/>
<g clip-path="url(#clip0_48_520)">
<path d="M34.7344 21.1406C31.9781 21.5813 29.7094 22.7625 27.7687 24.7875C26.2875 26.3344 25.3031 28.1531 24.75 30.375C24.4594 31.5188 24.3937 33.6563 24.6 34.9688C25.3969 39.9844 29.1469 43.8563 34.2656 44.9625C35.2969 45.1875 37.6312 45.1875 38.7375 44.9719C42.3656 44.25 45.4969 41.9438 47.1844 38.7375C48.1125 36.9656 48.4687 35.6156 48.5344 33.5531C48.5906 31.8656 48.4406 30.7031 48 29.3344C46.9969 26.2781 44.6719 23.6156 41.7656 22.2188C39.5719 21.1594 37.0312 20.775 34.7344 21.1406ZM37.5 25.0875C37.5562 25.2188 37.5937 25.5656 37.5937 25.8656C37.5937 26.1938 37.6406 26.4563 37.7156 26.5125C37.7719 26.5594 38.1469 26.6625 38.5406 26.7469C38.925 26.8219 39.4594 26.9906 39.7125 27.1125C40.2844 27.3844 40.3219 27.5719 39.9562 28.6875C39.6469 29.6156 39.6562 29.6156 38.5312 29.2031C37.9687 28.9969 37.6594 28.9406 36.9844 28.9406C36.0187 28.9313 35.625 29.0813 35.3906 29.5313C34.9969 30.3 35.475 30.8344 37.2281 31.5844C39.4781 32.55 40.2281 33.2063 40.6312 34.5844C41.1656 36.4125 40.1625 38.3156 38.2969 39.0094C37.9875 39.1219 37.6781 39.2625 37.6219 39.3094C37.5375 39.3656 37.5 39.6563 37.5 40.1625C37.5 41.2594 37.425 41.3438 36.4219 41.3438C35.4187 41.3438 35.3437 41.2781 35.3437 40.3969C35.3437 39.525 35.2687 39.4125 34.6687 39.3281C33.9562 39.2344 32.7844 38.85 32.4844 38.6063C32.2687 38.4375 32.2406 38.3531 32.2781 38.0719C32.3531 37.4719 32.7281 36.3656 32.8594 36.3188C32.9344 36.2906 33.3281 36.3938 33.7406 36.5531C34.7062 36.9281 35.25 37.0406 36.0187 37.05C37.1812 37.05 37.9406 36.4875 37.8375 35.6906C37.7531 34.9875 37.3781 34.6688 35.9437 34.0781C33.9937 33.2719 33.1125 32.6344 32.6531 31.7063C32.4187 31.2375 32.3906 31.0688 32.3906 30.2813C32.3906 29.5219 32.4281 29.3156 32.6344 28.875C33.0656 27.9656 33.6937 27.3844 34.6969 27C35.4281 26.7188 35.5312 26.5594 35.5312 25.6969C35.5312 25.2938 35.5594 24.9375 35.5969 24.9094C35.625 24.8719 36.0469 24.8438 36.5344 24.8438C37.3875 24.8438 37.4156 24.8531 37.5 25.0875Z" fill="#E66309"/>
<path d="M55.4156 32.4844C53.7187 32.925 52.1344 33.9 51.3844 34.9688C51.1312 35.3344 50.8969 35.8313 50.7094 36.4407C49.6969 39.7125 48.7875 41.3063 46.7812 43.3219C44.6625 45.45 42.3281 46.725 39.375 47.3625C38.5406 47.5407 38.1094 47.5688 36.5156 47.5688C34.9406 47.5688 34.4906 47.5407 33.6937 47.3625C31.7812 46.95 29.9344 46.1813 28.4344 45.1688L27.6656 44.6438L27.3844 45.3657C26.6531 47.2782 26.4094 48.6 26.4094 50.625C26.4094 53.0532 26.8406 54.7969 28.0687 57.3281C28.8844 58.9969 29.7844 60.3657 30.8625 61.6031C31.3031 62.1 31.7906 62.7 31.9594 62.9438C32.7469 64.0781 33.3 65.8031 33.4219 67.4438C33.4875 68.2688 33.5156 68.4 33.75 68.6625L34.0125 68.9531H37.6406H41.2687L41.5406 68.6438C41.8031 68.3531 41.8125 68.3156 41.8125 67.3594V66.3844L42.1219 66.45C42.2812 66.4875 43.425 66.5156 44.6437 66.5156H46.875V67.425C46.875 68.3063 46.8844 68.3531 47.1469 68.6438L47.4187 68.9531L50.9906 68.9813L54.5625 69.0094L54.9 68.6906L55.2469 68.3719L55.3125 66.8344C55.3687 65.4469 55.4062 65.2313 55.6406 64.6406C56.0719 63.5625 56.55 62.925 57.9094 61.5844C60.0469 59.4938 61.4531 57.3844 62.1094 55.2938L62.2781 54.7688L63.225 54.7313C64.35 54.6938 64.7719 54.525 65.2031 53.9157L65.4844 53.5125L65.5125 50.6907C65.5406 47.6625 65.5125 47.3719 65.1 46.875C64.6781 46.3782 64.3687 46.2657 63.2437 46.2188L62.2125 46.1719L61.9219 45.4219C61.1344 43.3969 60 41.7094 58.2469 39.975C57.0281 38.7563 57.0094 38.7375 56.8969 38.1657C56.6625 36.975 56.8969 35.7938 57.6562 34.3032C58.0781 33.4782 58.0969 33.3094 57.8812 32.85C57.5719 32.2032 56.8969 32.1 55.4156 32.4844ZM56.6156 43.6875C56.9625 43.9313 57.2812 44.5313 57.2812 44.9532C57.2812 45.375 56.9625 45.975 56.6156 46.2188C56.4094 46.3688 56.1375 46.4532 55.7906 46.4813C55.1812 46.5188 54.7687 46.3032 54.3937 45.75C54.2062 45.4688 54.1781 45.3375 54.2062 44.8407C54.2437 44.2125 54.4125 43.9407 54.9844 43.575C55.3781 43.3219 56.1937 43.3782 56.6156 43.6875Z" fill="#E66309"/>
</g>
<defs>
<clipPath id="clip0_48_520">
<rect width="48" height="48" fill="white" transform="translate(21 21)"/>
</clipPath>
</defs>
</svg>
