<svg width="35" height="35" viewBox="0 0 35 35" fill="none" xmlns="http://www.w3.org/2000/svg">
<path opacity="0.4" d="M30.0708 12.3229C28.5396 5.5854 22.6625 2.55206 17.5 2.55206C17.5 2.55206 17.5 2.55206 17.4854 2.55206C12.3375 2.55206 6.44582 5.57081 4.91457 12.3083C3.20832 19.8333 7.81665 26.2062 11.9875 30.2166C13.5333 31.7041 15.5167 32.4479 17.5 32.4479C19.4833 32.4479 21.4667 31.7041 22.9979 30.2166C27.1687 26.2062 31.7771 19.8479 30.0708 12.3229Z" fill="#E66309"/>
<path d="M17.5 19.6292C20.0371 19.6292 22.0937 17.5725 22.0937 15.0354C22.0937 12.4983 20.0371 10.4417 17.5 10.4417C14.9629 10.4417 12.9062 12.4983 12.9062 15.0354C12.9062 17.5725 14.9629 19.6292 17.5 19.6292Z" fill="#E66309"/>
</svg>
