<svg width="257" height="76" viewBox="0 0 257 76" fill="none" xmlns="http://www.w3.org/2000/svg">
<rect x="0.94983" y="0.94983" width="254.554" height="74.0867" rx="8.54847" fill="black"/>
<path d="M203.139 56.9898H206.684V33.241H203.139V56.9898ZM235.067 41.7963L231.004 52.0923H230.882L226.665 41.7963H222.847L229.172 56.1863L225.565 64.1915H229.262L239.009 41.7963H235.067ZM214.963 54.2925C213.804 54.2925 212.184 53.7114 212.184 52.2756C212.184 50.4426 214.201 49.74 215.941 49.74C217.499 49.74 218.234 50.0754 219.18 50.534C218.905 52.7342 217.011 54.2925 214.963 54.2925ZM215.392 41.2768C212.826 41.2768 210.168 42.4077 209.068 44.9129L212.214 46.2263C212.887 44.9129 214.139 44.4855 215.453 44.4855C217.286 44.4855 219.15 45.5845 219.18 47.5405V47.7846C218.538 47.418 217.163 46.8682 215.483 46.8682C212.091 46.8682 208.639 48.7314 208.639 52.2146C208.639 55.3922 211.42 57.4395 214.536 57.4395C216.918 57.4395 218.234 56.3702 219.057 55.1169H219.18V56.9513H222.603V47.8454C222.603 43.6291 219.454 41.2768 215.392 41.2768ZM193.485 44.6872H188.444V36.547H193.485C196.135 36.547 197.64 38.7406 197.64 40.617C197.64 42.4574 196.135 44.6872 193.485 44.6872ZM193.394 33.241H184.9V56.9898H188.444V47.9925H193.394C197.323 47.9925 201.185 45.1489 201.185 40.617C201.185 36.0862 197.323 33.241 193.394 33.241ZM147.078 54.2969C144.629 54.2969 142.579 52.2458 142.579 49.4313C142.579 46.5841 144.629 44.5039 147.078 44.5039C149.496 44.5039 151.393 46.5841 151.393 49.4313C151.393 52.2458 149.496 54.2969 147.078 54.2969ZM151.148 43.1261H151.026C150.23 42.1776 148.699 41.3207 146.772 41.3207C142.732 41.3207 139.029 44.8713 139.029 49.4313C139.029 53.9601 142.732 57.4796 146.772 57.4796C148.699 57.4796 150.23 56.6224 151.026 55.6437H151.148V56.8057C151.148 59.8979 149.496 61.5497 146.833 61.5497C144.661 61.5497 143.314 59.9892 142.763 58.6735L139.672 59.9588C140.559 62.1003 142.915 64.7332 146.833 64.7332C150.996 64.7332 154.515 62.2844 154.515 56.316V41.8104H151.148V43.1261ZM156.964 56.9898H160.513V33.241H156.964V56.9898ZM165.747 49.1552C165.655 46.0333 168.166 44.4424 169.97 44.4424C171.379 44.4424 172.571 45.1466 172.97 46.1559L165.747 49.1552ZM176.764 46.4615C176.091 44.6569 174.04 41.3207 169.848 41.3207C165.685 41.3207 162.227 44.5953 162.227 49.4001C162.227 53.9297 165.655 57.4796 170.245 57.4796C173.948 57.4796 176.091 55.2155 176.979 53.8991L174.224 52.0625C173.306 53.4093 172.052 54.2969 170.245 54.2969C168.44 54.2969 167.154 53.4703 166.329 51.8482L177.131 47.3802L176.764 46.4615ZM90.6944 43.7997V47.2273H98.8962C98.6513 49.1552 98.0087 50.5629 97.0292 51.5424C95.8353 52.7355 93.9683 54.052 90.6944 54.052C85.6446 54.052 81.6969 49.9818 81.6969 44.9321C81.6969 39.8824 85.6446 35.8117 90.6944 35.8117C93.4184 35.8117 95.4071 36.8831 96.8763 38.2603L99.2948 35.8421C97.2437 33.8837 94.5203 32.3841 90.6944 32.3841C83.7768 32.3841 77.9622 38.0155 77.9622 44.9321C77.9622 51.8482 83.7768 57.4796 90.6944 57.4796C94.4276 57.4796 97.2437 56.2552 99.4469 53.9601C101.712 51.6953 102.416 48.5126 102.416 45.9414C102.416 45.1466 102.354 44.412 102.232 43.7997H90.6944ZM111.741 54.2969C109.292 54.2969 107.18 52.277 107.18 49.4001C107.18 46.4927 109.292 44.5039 111.741 44.5039C114.188 44.5039 116.3 46.4927 116.3 49.4001C116.3 52.277 114.188 54.2969 111.741 54.2969ZM111.741 41.3207C107.271 41.3207 103.63 44.7176 103.63 49.4001C103.63 54.052 107.271 57.4796 111.741 57.4796C116.208 57.4796 119.85 54.052 119.85 49.4001C119.85 44.7176 116.208 41.3207 111.741 41.3207ZM129.432 54.2969C126.985 54.2969 124.872 52.277 124.872 49.4001C124.872 46.4927 126.985 44.5039 129.432 44.5039C131.881 44.5039 133.992 46.4927 133.992 49.4001C133.992 52.277 131.881 54.2969 129.432 54.2969ZM129.432 41.3207C124.964 41.3207 121.323 44.7176 121.323 49.4001C121.323 54.052 124.964 57.4796 129.432 57.4796C133.901 57.4796 137.543 54.052 137.543 49.4001C137.543 44.7176 133.901 41.3207 129.432 41.3207Z" fill="white"/>
<path d="M84.4914 25.1407C82.7883 25.1407 81.3234 24.5415 80.1422 23.3605C78.9605 22.1788 78.3621 20.6992 78.3621 18.9787C78.3621 17.2582 78.9608 15.7812 80.1422 14.5969C81.3234 13.4158 82.7883 12.8167 84.4914 12.8167C85.3591 12.8167 86.1689 12.9666 86.9428 13.2786C87.717 13.5907 88.3504 14.024 88.8491 14.5909L88.9668 14.7249L87.6381 16.0532L87.5053 15.8899C87.1746 15.4835 86.7538 15.1677 86.2208 14.9382C85.6897 14.7093 85.1079 14.6036 84.4914 14.6036C83.2918 14.6036 82.2965 15.0109 81.4653 15.8391C81.4651 15.8393 81.4648 15.8393 81.4646 15.8395C80.6523 16.6843 80.2439 17.713 80.2439 18.9787C80.2439 20.2455 80.6528 21.2743 81.4661 22.1195C82.2972 22.9473 83.2925 23.3568 84.4914 23.3568C85.5895 23.3568 86.4977 23.0503 87.2118 22.4434H87.2122C87.8769 21.8786 88.2758 21.1153 88.4169 20.1423H84.3015V18.391H90.1956L90.2208 18.5513C90.2691 18.8591 90.3032 19.1563 90.3032 19.4418C90.3032 21.0758 89.805 22.4097 88.8276 23.391C87.7243 24.5606 86.2733 25.1407 84.4914 25.1407L84.4914 25.1407ZM135.672 25.1407C133.966 25.1407 132.518 24.5412 131.352 23.3605C131.352 23.3604 131.352 23.3604 131.352 23.3602C131.352 23.36 131.352 23.36 131.351 23.3598C130.184 22.1919 129.605 20.7119 129.605 18.9787C129.605 17.2455 130.184 15.7655 131.351 14.5976C131.352 14.5975 131.352 14.5974 131.352 14.5972L131.352 14.5968C132.518 13.416 133.966 12.8167 135.672 12.8167C137.374 12.8167 138.822 13.4162 139.988 14.6147C141.156 15.7824 141.736 17.2595 141.736 18.9787C141.736 20.7119 141.156 22.1919 139.989 23.3598L139.989 23.3602C138.822 24.5416 137.36 25.1407 135.672 25.1407L135.672 25.1407ZM91.9899 24.8855V13.072H92.1799H99.0453V14.8588H93.8391V18.1031H98.5348V19.8543H93.8391V23.1016H99.0453V24.8855H91.9899ZM103.363 24.8855V14.8588H100.17V13.072H108.406V14.8588H108.216H105.213V24.8855H103.363ZM113.67 24.8855V13.072H115.52V13.2619V24.8855H113.67ZM120.175 24.8855V14.8588H116.981V13.072H125.218V14.8588H125.028H122.024V24.8855H120.175ZM143.377 24.8855V13.072H145.462L150.769 21.5677L150.723 19.9549V13.072H152.573V24.8855H150.743L145.181 15.9604L145.226 17.5722V17.5747V24.8855H143.377ZM135.672 23.3568C136.871 23.3568 137.851 22.9477 138.649 22.1209L138.65 22.1194L138.651 22.1183C139.461 21.3085 139.857 20.2659 139.857 18.9787C139.857 17.6945 139.461 16.6485 138.651 15.839L138.65 15.8379L138.649 15.8367C137.851 15.0101 136.872 14.6034 135.672 14.6034C134.47 14.6034 133.491 15.0094 132.677 15.836L132.677 15.8368C131.882 16.6659 131.486 17.6949 131.486 18.9786C131.486 20.2655 131.882 21.2912 132.677 22.1205L132.677 22.1212C133.491 22.9479 134.47 23.3568 135.672 23.3568V23.3568Z" fill="white"/>
<path d="M39.3505 36.8975L19.1257 58.3637C19.1265 58.3681 19.128 58.3719 19.1288 58.3763C19.749 60.7071 21.878 62.4235 24.4047 62.4235C25.4147 62.4235 26.3631 62.1504 27.1763 61.671L27.2409 61.6332L50.0064 48.4966L39.3505 36.8975Z" fill="#EA4335"/>
<path d="M59.8119 33.2422L59.7925 33.2289L49.964 27.5313L38.8911 37.3844L50.0026 48.4944L59.7792 42.8533C61.4933 41.928 62.6568 40.1211 62.6568 38.0373C62.6568 35.9686 61.5088 34.1706 59.8119 33.2422Z" fill="#FBBC04"/>
<path d="M19.1251 17.6219C19.0035 18.0702 18.9396 18.5398 18.9396 19.0275V56.9591C18.9396 57.4459 19.0027 57.917 19.1258 58.3638L40.0466 37.4468L19.1251 17.6219Z" fill="#4285F4"/>
<path d="M39.4997 37.9929L49.968 27.5277L27.2283 14.3437C26.4018 13.8486 25.4371 13.5629 24.4048 13.5629C21.8781 13.5629 19.7463 15.2823 19.1259 17.616C19.1251 17.6183 19.1251 17.6198 19.1251 17.6219L39.4997 37.9929Z" fill="#34A853"/>
<rect x="0.94983" y="0.94983" width="254.554" height="74.0867" rx="8.54847" stroke="#A6A6A6" stroke-width="1.89966"/>
</svg>
