<svg width="80" height="80" viewBox="0 0 80 80" fill="none" xmlns="http://www.w3.org/2000/svg">
<path d="M24.1313 9.43634C24.0622 9.5054 24.0104 10.783 24.0104 12.2851C24.0104 15.2893 23.9759 15.203 25.2363 15.203H25.9096V16.6705V18.1381H23.8033C22.0077 18.1381 21.5933 18.1899 20.9372 18.5006C19.9013 19.0186 19.1761 20.1408 19.1761 21.2803V22.1091H26.5139H33.8517V21.6257C33.8517 20.8315 33.5236 19.8991 33.0402 19.3294C32.2978 18.4488 31.4173 18.1381 29.5871 18.1381H27.9815V16.6705V15.203H28.6548C29.8461 15.203 29.8806 15.1512 29.8806 13.6318V12.2679H31.9352C33.9553 12.2679 34.0071 12.2851 34.3524 12.7167C34.5941 13.0103 34.7149 13.4419 34.7149 13.8908C34.7149 14.7023 34.8185 14.8922 35.371 15.1857C35.8199 15.4274 36.3379 15.2202 36.6314 14.6505C36.8558 14.2188 36.7005 12.7685 36.3551 12.0952C35.9926 11.4046 34.9912 10.5931 34.2488 10.3859C33.8862 10.2823 32.764 10.196 31.7453 10.196C29.967 10.196 29.8979 10.1787 29.8461 9.79891C29.7943 9.41907 29.7425 9.41907 27.0146 9.36728C25.4953 9.35001 24.2004 9.38454 24.1313 9.43634Z" fill="#E66309"/>
<path d="M16.241 25.3204C13.4267 26.0456 10.6988 28.2383 9.45571 30.759C8.2644 33.1934 8.29893 32.1748 8.29893 55.224V75.9769L19.1243 75.9424L29.9669 75.8906L30.0878 74.8547C30.4849 71.6778 32.2805 67.9485 34.7149 65.2206L35.6127 64.2365H26.8246C20.212 64.2192 17.9848 64.1674 17.7776 64.012C17.1042 63.4941 17.1042 63.3905 17.1042 51.0285C17.1042 38.304 17.1042 38.2349 17.8812 37.9241C18.0366 37.8723 24.114 37.8205 31.3654 37.8205H44.5561V35.8696C44.5561 34.6955 44.4525 33.5215 44.2971 32.9344C43.3475 29.3087 40.1707 26.1492 36.5795 25.3032C35.0084 24.9406 17.6567 24.9406 16.241 25.3204Z" fill="#E66309"/>
<path d="M55.865 32.969C53.4133 33.6078 51.9458 36.2494 52.74 38.6147C53.9831 42.3613 59.0591 42.6893 60.8892 39.1672C61.269 38.4248 61.3899 36.9227 61.1309 36.0077C60.8719 35.0753 59.8015 33.7977 58.8864 33.3315C58.1267 32.9517 56.6247 32.7618 55.865 32.969Z" fill="#E66309"/>
<path d="M70.0051 37.0263C66.3103 38.2176 65.1017 42.862 67.6743 45.8144C67.985 46.1597 68.7102 46.6776 69.2799 46.9712C70.1777 47.4201 70.523 47.4891 71.6626 47.4891C72.8021 47.4891 73.1474 47.4201 74.0624 46.9539C78.0162 44.9856 77.9644 39.3917 73.9934 37.3544C72.9575 36.8191 71.0928 36.6638 70.0051 37.0263Z" fill="#E66309"/>
<path d="M20.0394 51.0285V61.3014H30.0188H39.9809L41.0341 60.8525L42.07 60.4208L42.0009 58.5735C41.8973 55.7247 42.5016 53.5147 44.0555 51.0976L44.5562 50.3034V45.5381V40.7556H32.2978H20.0394V51.0285Z" fill="#E66309"/>
<path d="M53.1369 48.525C50.8579 48.9221 49.3213 49.7163 47.6638 51.3565C45.92 53.0831 44.9013 55.5348 44.9013 58.0555C44.9013 59.7475 44.8323 59.6957 46.6451 59.5058C48.4235 59.3159 50.8234 59.5403 52.688 60.0755L53.793 60.3863L54.8634 59.3849C57.1425 57.2785 60.3365 55.9491 63.2371 55.9491C63.7896 55.9491 63.8587 55.9146 63.7723 55.552C63.5479 54.6542 62.4947 52.686 61.8041 51.8745C60.4574 50.3034 58.5237 49.0948 56.7626 48.7149C55.5541 48.456 54.0174 48.3696 53.1369 48.525Z" fill="#E66309"/>
<path d="M61.3726 59.1259C60.8029 59.2641 59.8187 59.6266 59.2145 59.9201C58.1095 60.4726 56.8146 61.405 56.8146 61.6121C56.8146 61.6812 57.298 62.0438 57.9023 62.4236C60.3712 63.9948 63.1682 67.2406 64.4113 69.9858C65.0501 71.4016 65.7235 73.6633 65.8789 74.9928L65.9997 75.9769H67.6917C69.6945 75.9769 69.8499 75.8906 71.1621 74.0259C73.7173 70.3829 73.4238 65.4623 70.4369 62.1128C68.227 59.6266 64.5322 58.4008 61.3726 59.1259Z" fill="#E66309"/>
<path d="M45.8511 62.5099C40.5506 63.3387 36.0789 66.7917 34.0071 71.6606C33.4718 72.9382 32.9884 74.7165 32.9884 75.4935V75.9769H48.0092C61.4762 75.9769 63.0301 75.9424 63.0301 75.7007C63.0301 75.1654 62.4776 73.0073 62.0632 71.9713C61.0791 69.4506 58.9727 66.7745 56.6937 65.1688C55.3297 64.1847 53.3615 63.2696 51.6695 62.838C50.1156 62.4409 47.3186 62.2855 45.8511 62.5099Z" fill="#E66309"/>
</svg>
