<svg width="26" height="25" viewBox="0 0 26 25" fill="none" xmlns="http://www.w3.org/2000/svg">
<rect x="0.908691" y="0.0336914" width="24.5912" height="24.5903" rx="4.61098" fill="#E66309"/>
<path d="M20.9048 10.8414C20.7998 10.5167 20.5118 10.2861 20.171 10.2553L15.542 9.83504L13.7116 5.5509C13.5766 5.23693 13.2693 5.03369 12.9277 5.03369C12.5862 5.03369 12.2788 5.23693 12.1439 5.55163L10.3135 9.83504L5.68374 10.2553C5.34357 10.2868 5.05626 10.5167 4.95066 10.8414C4.84506 11.1662 4.94258 11.5224 5.19991 11.7469L8.69888 14.8154L7.66711 19.3602C7.59162 19.6943 7.72132 20.0397 7.9986 20.2402C8.14763 20.3478 8.322 20.4026 8.49784 20.4026C8.64944 20.4026 8.79983 20.3618 8.93479 20.281L12.9277 17.8947L16.9192 20.281C17.2113 20.4567 17.5795 20.4407 17.8561 20.2402C18.1335 20.0391 18.2631 19.6936 18.1876 19.3602L17.1559 14.8154L20.6548 11.7475C20.9122 11.5224 21.0104 11.1668 20.9048 10.8414Z" fill="white"/>
</svg>
