<svg width="43" height="43" viewBox="0 0 43 43" fill="none" xmlns="http://www.w3.org/2000/svg">
<circle cx="21.5" cy="21.3289" r="21" fill="#F0F0F0"/>
<path d="M17.7915 8.6106C17.4685 8.69263 17.0071 8.96948 16.7815 9.21045C16.6687 9.3335 16.4995 9.58984 16.4124 9.77954C16.2637 10.0923 16.2483 10.1692 16.2483 10.6152C16.2483 11.0767 16.2585 11.1228 16.438 11.4919C16.6687 11.9585 16.9661 12.2456 17.4429 12.4712C17.7505 12.6199 17.8325 12.6353 18.2478 12.6301C18.5862 12.6301 18.781 12.5994 18.9707 12.5276L19.2271 12.4199L19.8423 12.9275C20.1755 13.2043 20.4524 13.4504 20.4524 13.4812C20.4524 13.5068 20.1807 13.7581 19.8423 14.0349L19.2322 14.5425L18.9707 14.4399C18.781 14.363 18.5862 14.3323 18.2478 14.3323C17.8325 14.3271 17.7505 14.3425 17.4429 14.4912C16.9661 14.7168 16.6687 15.0039 16.438 15.4705C16.2585 15.8396 16.2483 15.8857 16.2483 16.3472C16.2483 16.7932 16.2637 16.8701 16.4124 17.1829C16.6379 17.6597 16.925 17.957 17.3916 18.1877C17.7607 18.3672 17.8069 18.3774 18.2734 18.3774C18.74 18.3774 18.7861 18.3672 19.1553 18.1877C19.6218 17.957 19.9089 17.6597 20.1345 17.1829C20.2781 16.8804 20.2986 16.7881 20.2986 16.3831V15.9268L21.1138 15.3115C21.8777 14.7373 21.9341 14.7014 22.0417 14.7681C22.1033 14.8091 22.8621 15.4294 23.7285 16.1472C24.595 16.865 25.4102 17.5161 25.5486 17.593C26.0305 17.875 26.5022 17.9622 27.5276 17.9622C28.5837 17.9622 28.8657 17.9109 28.917 17.7109C28.9324 17.6392 28.9221 17.5469 28.8914 17.511C28.8555 17.47 27.6506 16.5574 26.2151 15.4756C24.7795 14.3989 23.6106 13.4966 23.6157 13.4709C23.626 13.4453 24.8206 12.5276 26.2715 11.4407C28.1223 10.0461 28.917 9.42578 28.9272 9.34888C28.9683 9.07202 28.6196 8.98999 27.3994 9.00024C26.5125 9.00537 25.9998 9.10791 25.5486 9.36938C25.4102 9.44629 24.595 10.0974 23.7285 10.8152C22.8621 11.533 22.1033 12.1533 22.0417 12.1943C21.9341 12.261 21.8777 12.2251 21.1138 11.6509L20.2986 11.0356V10.5793C20.2986 10.1487 20.2832 10.0923 20.1089 9.72827C19.7603 9.03101 19.145 8.61572 18.3862 8.57983C18.1709 8.56958 17.9043 8.58496 17.7915 8.6106ZM18.5964 9.86157C19.1245 10.082 19.2527 10.769 18.8425 11.1792C18.5093 11.5125 18.0376 11.5125 17.7043 11.1792C17.0686 10.5486 17.771 9.51294 18.5964 9.86157ZM18.5964 15.6038C19.1245 15.8242 19.2527 16.5112 18.8425 16.9214C18.5093 17.2546 18.0376 17.2546 17.7043 16.9214C17.0686 16.2908 17.771 15.2551 18.5964 15.6038Z" fill="#1D1D1D"/>
<path d="M13.9259 15.0809C13.4696 15.7576 12.7774 16.9317 12.4288 17.6085C12.0032 18.439 11.7623 19.1004 11.7264 19.5311C11.67 20.1771 11.9622 20.9051 12.4749 21.3922C13.4747 22.3458 14.9923 22.315 15.9407 21.3255L16.2227 21.023L16.5047 21.3255C17.4788 22.3407 19.0682 22.3407 20.0423 21.3255L20.3243 21.023L20.6063 21.3255C21.5804 22.3407 23.1698 22.3407 24.1439 21.3255L24.4259 21.023L24.7078 21.3255C25.3231 21.9664 26.2305 22.233 27.0662 22.0177C27.5123 21.8997 27.9224 21.6588 28.2454 21.3255L28.5274 21.023L28.8094 21.3255C30.1578 22.7354 32.4803 22.0997 32.9674 20.1822C33.1366 19.5413 32.9622 18.8595 32.3214 17.6085C31.9727 16.9317 31.2806 15.7576 30.8243 15.0809L30.5731 14.7118H28.9273C27.5277 14.7118 27.2867 14.722 27.3482 14.7835C27.3892 14.8194 27.8968 15.2039 28.4762 15.6346C29.722 16.5626 29.8297 16.66 29.9989 16.9932C30.2808 17.5367 30.1783 18.2186 29.7579 18.6544C29.3375 19.085 28.8812 19.1927 27.502 19.1978C26.5177 19.1978 26.005 19.1209 25.4 18.88C24.8924 18.6749 24.6104 18.4749 23.2108 17.3162L21.9137 16.2447L21.7445 16.3729C21.5907 16.4908 21.5599 16.5523 21.483 16.9522C21.1805 18.5108 19.8372 19.6336 18.2735 19.6336C16.4124 19.6336 14.8949 18.034 15.0076 16.1934C15.0333 15.7576 15.223 15.0706 15.3819 14.8245L15.4537 14.7118H14.8179H14.1771L13.9259 15.0809Z" fill="#1D1D1D"/>
<path d="M15.8125 22.9199C15.6023 23.0327 15.2793 23.1609 15.0947 23.207C14.7461 23.2993 13.8232 23.3301 13.5208 23.2634L13.3516 23.2224V27.5803V31.9382H22.375H31.3984V27.5803V23.2224L31.2344 23.2634C31.1421 23.2839 30.8345 23.2993 30.5525 23.2993C29.9321 23.2993 29.4502 23.1865 28.9067 22.9097L28.512 22.7148L28.3171 22.8276L28.1172 22.9404V25.7961V28.657H22.375H16.6328V25.7961V22.9404L16.4277 22.8225C16.3201 22.761 16.2227 22.7148 16.2124 22.7148C16.2021 22.72 16.0227 22.8123 15.8125 22.9199Z" fill="#1D1D1D"/>
</svg>
