<svg width="27" height="26" viewBox="0 0 27 26" fill="none" xmlns="http://www.w3.org/2000/svg">
<path fill-rule="evenodd" clip-rule="evenodd" d="M10.6647 1C5.60721 1 1.5 5.10721 1.5 10.1647C1.5 15.2222 5.60721 19.3295 10.6647 19.3295C15.7222 19.3295 19.8295 15.2222 19.8295 10.1647C19.8295 5.10721 15.7222 1 10.6647 1ZM10.6647 2.40996C14.9454 2.40996 18.4195 5.88409 18.4195 10.1647C18.4195 14.4454 14.9454 17.9195 10.6647 17.9195C6.38409 17.9195 2.90996 14.4454 2.90996 10.1647C2.90996 5.88409 6.38409 2.40996 10.6647 2.40996Z" fill="#E66309" stroke="#E66309" stroke-width="1.2"/>
<path fill-rule="evenodd" clip-rule="evenodd" d="M25.2595 23.7661L17.1396 15.6476C16.8646 15.3727 16.4177 15.3727 16.1427 15.6476C15.8678 15.9226 15.8678 16.3695 16.1427 16.6445L24.2613 24.7644C24.5376 25.0393 24.9832 25.0393 25.2595 24.7644C25.5345 24.488 25.5345 24.0425 25.2595 23.7661Z" fill="#E66309" stroke="#E66309" stroke-width="1.2"/>
</svg>
