<svg width="43" height="43" viewBox="0 0 43 43" fill="none" xmlns="http://www.w3.org/2000/svg">
<circle cx="21.5" cy="21.3289" r="21" fill="#F0F0F0"/>
<path d="M19.6768 8.15404C18.4412 8.35912 17.344 8.97435 16.657 9.84594C16.3853 10.1894 15.9084 10.9841 15.9084 11.0918C15.9084 11.1123 16.0059 11.0662 16.1289 10.9944C17.2209 10.3227 18.6001 9.83568 20.1638 9.57421C20.8611 9.45629 22.4197 9.41527 23.1118 9.4973L23.4707 9.54345L23.1887 9.25121C22.4658 8.50267 21.4763 8.09252 20.4202 8.10277C20.1536 8.1079 19.8203 8.12841 19.6768 8.15404Z" fill="#1D1D1D"/>
<path d="M21.0097 10.2821C20.4611 10.3436 19.4768 10.5333 18.9179 10.6871C15.7392 11.5587 13.591 13.8299 12.986 16.9522C12.6938 18.4596 12.8476 19.7003 13.4782 20.9205C13.7346 21.4229 14.0627 21.9049 14.0627 21.787C14.0627 21.7459 14.0883 21.4896 14.114 21.223C14.319 19.2747 15.0214 17.7418 16.2878 16.4806C17.1901 15.5833 18.1745 14.9989 19.569 14.5374C21.7788 13.7992 24.2038 13.7581 26.1982 14.4195C26.4904 14.5169 26.7365 14.5836 26.7519 14.5682C26.7673 14.5528 26.7775 14.3734 26.7775 14.1734C26.7775 13.4351 26.4853 12.6661 25.906 11.9022C25.2805 11.0716 24.5832 10.6461 23.4194 10.3949C22.9631 10.2974 21.5019 10.2308 21.0097 10.2821Z" fill="#1D1D1D"/>
<path d="M23.0042 14.8296C24.2961 15.655 25.0959 16.3831 25.8086 17.3931C26.5674 18.4697 27.0647 19.9412 27.1775 21.4229L27.2134 21.8997L27.4543 21.5767C27.7722 21.1511 28.1209 20.4744 28.2747 19.9924C28.3772 19.6541 28.3926 19.5105 28.3875 18.8389C28.3772 17.9519 28.2849 17.5007 27.9773 16.8701C27.7107 16.3267 27.0903 15.6909 26.6033 15.4551C25.7625 15.0552 24.3372 14.7578 23.2913 14.7681C22.9734 14.7681 22.9221 14.7783 23.0042 14.8296Z" fill="#1D1D1D"/>
<path d="M20.5483 15.096C17.3748 15.9369 15.5957 17.7159 15.0317 20.6178C14.9497 21.0433 14.9189 21.3971 14.9138 21.9405C14.9138 22.6173 14.9292 22.7403 15.0728 23.2787C15.1599 23.6068 15.3752 24.2425 15.5547 24.6886C15.8418 25.4166 15.9033 25.5294 16.134 25.7652C16.3596 25.9908 16.4827 26.0575 17.0364 26.2677C17.3901 26.4061 17.7183 26.5599 17.7695 26.6163C17.9541 26.8316 17.8516 27.1393 17.5388 27.3033C17.4619 27.3443 17.5132 27.4059 17.8516 27.6981C18.6155 28.3595 19.3538 28.7799 20.0459 28.9439C21.1943 29.2157 22.5273 28.6414 23.8604 27.3084C24.9165 26.2523 25.7419 24.868 26.1931 23.4017C26.3264 22.971 26.3367 22.8788 26.3367 22.0174C26.3418 20.9818 26.27 20.4793 26.0034 19.6488C25.6548 18.5567 25.1472 17.7467 24.2397 16.8341C23.3682 15.9625 22.5632 15.4447 21.5276 15.0909C21.0969 14.9422 21.1226 14.9422 20.5483 15.096ZM18.6309 19.7667C18.9641 19.8641 19.4563 20.1205 19.5793 20.2589C19.6306 20.3101 19.6716 20.4383 19.6716 20.5409C19.6716 20.787 19.4973 20.9305 19.2358 20.9049C19.0615 20.8895 19.041 20.8997 19.0154 21.0228C18.9744 21.2433 18.6667 21.5919 18.395 21.7303C18.0669 21.8995 17.626 21.9046 17.3132 21.7457C17.0569 21.6124 16.7493 21.2689 16.7031 21.0638C16.6724 20.9254 16.6519 20.9151 16.4468 20.9151C16.2673 20.9151 16.2007 20.8895 16.1187 20.7818C15.9597 20.5768 15.9802 20.3871 16.1853 20.2127C16.3853 20.0333 16.7441 19.8539 17.0774 19.7616C17.426 19.6642 18.2925 19.6693 18.6309 19.7667ZM24.5012 19.8128C25.3164 20.0846 25.6138 20.4281 25.3369 20.7818C25.2549 20.8895 25.1882 20.9151 25.0139 20.9151C24.814 20.9151 24.7935 20.9254 24.7319 21.0997C24.6448 21.3355 24.3987 21.6175 24.168 21.7303C23.5425 22.0482 22.7478 21.7713 22.4863 21.1458C22.3992 20.9305 22.3838 20.9151 22.1992 20.9151C22.0608 20.9151 21.9685 20.8792 21.8813 20.787C21.5532 20.4588 21.907 20.0641 22.7786 19.7821C23.2246 19.6385 24.0193 19.6488 24.5012 19.8128ZM21.8967 23.7657C22.0608 23.9503 22.0403 24.1143 21.825 24.3502C21.2712 24.9603 20.2869 24.9808 19.7126 24.3861C19.5024 24.1656 19.4819 23.9452 19.6511 23.7606C19.8203 23.5811 20.0203 23.5965 20.3022 23.8119C20.6252 24.058 20.8354 24.0682 21.1584 23.8477C21.5994 23.5453 21.6814 23.535 21.8967 23.7657ZM21.4661 25.4474C22.4556 25.7806 22.676 25.919 22.676 26.2061C22.676 26.3497 22.6094 26.442 22.189 26.847C21.343 27.6622 20.7175 27.8724 20.0459 27.5648C19.6819 27.4007 19.2563 27.0726 18.8718 26.6676C18.6411 26.4266 18.5745 26.3189 18.5745 26.201C18.5745 25.9242 18.8 25.7806 19.7793 25.4474C20.4663 25.2166 20.7739 25.2166 21.4661 25.4474Z" fill="#1D1D1D"/>
<path d="M17.4465 20.6587C17.4465 20.9561 17.7952 21.1509 18.0413 20.9971C18.1899 20.8946 18.2925 20.6998 18.2515 20.587C18.2258 20.5203 18.1335 20.5049 17.8311 20.5049H17.4465V20.6587Z" fill="#1D1D1D"/>
<path d="M23.1887 20.6384C23.1887 20.7871 23.4399 21.0691 23.5732 21.0691C23.7937 21.0691 24.0039 20.864 24.009 20.6436V20.5051H23.5989C23.1938 20.5051 23.1887 20.5051 23.1887 20.6384Z" fill="#1D1D1D"/>
<path d="M20.0767 26.2012C19.8972 26.2576 19.7537 26.3242 19.7537 26.3499C19.7537 26.4216 20.1382 26.7036 20.3894 26.8164L20.6304 26.9189L20.897 26.7959C21.1687 26.6729 21.4968 26.4268 21.4968 26.3499C21.4968 26.2781 20.8457 26.0935 20.6047 26.0986C20.4919 26.0986 20.251 26.1448 20.0767 26.2012Z" fill="#1D1D1D"/>
<path d="M30.5664 23.1812C30.4382 23.4171 30.1819 23.6939 29.946 23.8477L29.7051 24.0067L29.9307 24.1554C30.1768 24.3194 30.4485 24.6014 30.5305 24.7911C30.6023 24.95 30.6331 24.9449 30.7356 24.7706C30.8535 24.5758 31.2329 24.2015 31.4175 24.1092L31.5713 24.0272L31.4431 23.9452C31.2021 23.7862 30.9099 23.5042 30.7715 23.2838C30.6331 23.0633 30.6279 23.0633 30.5664 23.1812Z" fill="#1D1D1D"/>
<path d="M9.26904 24.1658L9.0127 24.4324L9.28442 24.6938L9.55103 24.9553L9.82275 24.6938L10.0894 24.4324L9.81763 24.1606C9.66895 24.012 9.54077 23.8889 9.53564 23.894C9.53052 23.8992 9.4126 24.0222 9.26904 24.1658Z" fill="#1D1D1D"/>
<path d="M14.8831 25.7859C14.7241 26.0986 14.2935 26.5396 13.9705 26.7241L13.6987 26.8779L13.9705 27.0317C14.314 27.2266 14.719 27.6418 14.8779 27.9648L15.001 28.2109L15.1292 27.9648C15.2881 27.6418 15.7649 27.165 16.0879 27.0061L16.334 26.8779L16.0879 26.7549C15.7751 26.5959 15.3547 26.1858 15.1548 25.8372L14.9958 25.5654L14.8831 25.7859Z" fill="#1D1D1D"/>
<path d="M27.4902 27.8879L27.2134 28.1699L27.4954 28.4519L27.7773 28.7339L28.0593 28.4519L28.3413 28.1699L28.0542 27.8879L27.7722 27.606L27.4902 27.8879Z" fill="#1D1D1D"/>
<path d="M17.6311 29.8258C17.5491 30.4359 17.4517 30.9999 17.4158 31.0768C17.3286 31.2408 17.3645 31.2306 15.6521 31.61C14.355 31.8971 12.499 32.3534 11.8582 32.5482L11.5249 32.6456L20.6201 32.6507C25.624 32.6559 29.7051 32.6456 29.6948 32.6354C29.6128 32.5533 26.1316 31.6971 24.655 31.3946C23.9885 31.2613 23.8296 31.1896 23.7886 31.005C23.7732 30.9383 23.6963 30.4154 23.6245 29.836C23.5476 29.2567 23.481 28.7799 23.4707 28.7696C23.4656 28.7645 23.3015 28.8619 23.1067 28.9901C22.6606 29.2875 22.1428 29.5335 21.6506 29.6874C21.1021 29.8617 20.1997 29.8617 19.6511 29.6925C19.2102 29.5489 18.5693 29.2413 18.1643 28.9696C18.0105 28.8619 17.8567 28.7645 17.8259 28.744C17.79 28.7235 17.7234 29.0875 17.6311 29.8258Z" fill="#1D1D1D"/>
</svg>
