<svg width="43" height="43" viewBox="0 0 43 43" fill="none" xmlns="http://www.w3.org/2000/svg">
<circle cx="21.5" cy="21.3289" r="21" fill="#F0F0F0"/>
<g clip-path="url(#clip0_829_158)">
<path d="M26.9264 10.9149C26.828 10.9641 26.7131 11.0667 26.6598 11.1487C26.5737 11.2882 26.5655 11.3456 26.5655 11.9362C26.5655 12.6458 26.5942 12.7524 26.8403 12.9288C26.9592 13.0108 27.0372 13.0272 27.4801 13.0436L27.9805 13.0641L27.2709 13.7737L26.5614 14.4833L26.2333 14.2905C24.2235 13.0969 21.6272 13.1995 19.7446 14.5489C17.985 15.8163 17.0334 17.8425 17.2262 19.9219C17.3657 21.4149 17.9276 22.629 18.9571 23.6626C19.7979 24.5034 20.8274 25.0612 22.0045 25.3155C22.5583 25.4303 23.6698 25.4427 24.2317 25.3401C25.9708 25.012 27.4268 24.003 28.3333 22.4977C28.928 21.5052 29.2028 20.3977 29.1577 19.2001C29.1125 18.1255 28.8172 17.1247 28.2922 16.3044L28.1364 16.0665L28.8583 15.3446L29.5801 14.6227V15.0944C29.5801 15.6686 29.6499 15.8368 29.9493 15.9844C30.1092 16.0706 30.1913 16.0788 30.6875 16.0788C31.3233 16.0788 31.5079 16.0214 31.676 15.7876L31.7745 15.6481L31.7868 13.6753L31.7991 11.7024L31.6637 11.4399C31.5161 11.1569 31.27 10.9518 30.9829 10.8698C30.8885 10.8452 30.1092 10.8288 28.9649 10.8288C27.152 10.8288 27.0946 10.8329 26.9264 10.9149ZM24.0799 15.7917C24.4573 15.8819 24.9905 16.1198 25.3022 16.329C26.0241 16.8212 26.5901 17.6292 26.8239 18.4946C26.9715 19.0606 26.9715 19.8235 26.8239 20.3895C26.5901 21.255 26.0241 22.063 25.3022 22.5552C24.2522 23.2729 22.7838 23.396 21.6436 22.871C20.5444 22.3624 19.761 21.3862 19.5026 20.2009C19.4206 19.8235 19.4206 19.0606 19.5067 18.6751C19.761 17.5184 20.5157 16.5546 21.5616 16.0624C22.3778 15.6727 23.2104 15.5866 24.0799 15.7917Z" fill="#1D1D1D"/>
<path d="M21.8078 16.8006C21.3279 17.0467 20.8234 17.5389 20.5978 17.9777L20.4666 18.232L20.6552 18.5191C20.848 18.8062 21.0367 19.2492 21.1556 19.6799C21.2541 20.0244 21.2746 20.9473 21.1966 21.3082C21.1269 21.6486 21.1269 21.6568 21.5453 21.9275C21.9759 22.2105 22.4312 22.3705 22.9398 22.4197L23.2187 22.4443L23.2638 22.268C23.5796 21.1031 23.5509 19.8398 23.1941 18.7242C23.0628 18.3141 22.7552 17.6537 22.5419 17.3297C22.2917 16.9482 22.099 16.698 22.0539 16.698C22.0333 16.698 21.9226 16.7432 21.8078 16.8006Z" fill="#1D1D1D"/>
<path d="M17.0907 14.4667C14.4288 14.5733 12.1237 16.4149 11.4183 18.9948C10.7169 21.5501 11.7833 24.331 14.0145 25.7665C14.6667 26.189 15.2942 26.4474 16.1392 26.636L16.2499 26.6606V27.3579V28.0552H15.6183C15.2696 28.0552 14.9333 28.0757 14.8677 28.1003C14.6626 28.1782 14.4944 28.3792 14.4411 28.6089C14.3673 28.9452 14.4083 29.7696 14.5067 29.9419C14.6749 30.2249 14.7405 30.2454 15.5239 30.27L16.2294 30.2905L16.2499 30.8524C16.2704 31.4595 16.2991 31.5333 16.5534 31.722C16.6518 31.7999 16.7339 31.8081 17.2876 31.8204C17.87 31.8327 17.9233 31.8245 18.0956 31.7384C18.3909 31.5866 18.4647 31.398 18.4647 30.7745V30.27H19.1374C19.7649 30.27 19.8142 30.2659 19.9413 30.1757C20.2284 29.9829 20.2489 29.9255 20.2612 29.2118C20.2694 28.6048 20.2653 28.5597 20.1792 28.4038C20.1177 28.2972 20.0192 28.2069 19.9003 28.1454C19.7362 28.0634 19.6624 28.0552 19.0923 28.0552H18.4647L18.4729 27.3497L18.4852 26.6483L18.7313 26.5909C19.0882 26.513 19.4614 26.3858 19.8388 26.2177C20.1751 26.07 20.6796 25.7952 20.6796 25.7583C20.6796 25.746 20.4786 25.6435 20.2366 25.5245C19.7239 25.2743 19.3056 25.0036 18.8544 24.6263C18.5878 24.4089 18.5099 24.3638 18.4237 24.3802C18.0833 24.4622 17.5829 24.5278 17.3327 24.5278C16.6642 24.5278 15.8972 24.3064 15.3024 23.9454C14.8431 23.6665 14.2483 23.0636 13.9776 22.6124C13.5101 21.8208 13.3255 20.8364 13.4813 19.9669C13.7849 18.2565 15.0974 16.981 16.8364 16.7144C16.9759 16.6939 17.0005 16.6651 17.1153 16.4355C17.3819 15.9146 17.7962 15.3198 18.2597 14.7989L18.4688 14.5692L18.3458 14.5405C18.1694 14.5036 17.3778 14.4585 17.0907 14.4667Z" fill="#1D1D1D"/>
</g>
<defs>
<clipPath id="clip0_829_158">
<rect width="21" height="21" fill="white" transform="translate(11 10.8289)"/>
</clipPath>
</defs>
</svg>
