<svg width="34" height="33" viewBox="0 0 34 33" fill="none" xmlns="http://www.w3.org/2000/svg">
<path d="M2.94777 14.8592H3.34333V10.8998C3.34333 8.50363 5.25392 6.55427 7.60218 6.55427H7.88075L10.1274 1.96366C10.6403 0.914633 11.8361 0.44099 12.9089 0.862333L27.4043 6.55427H28.8627C31.211 6.55427 33.1216 8.50363 33.1216 10.8998V27.6412C33.1216 30.0374 31.211 31.987 28.8627 31.987H7.60218C5.25392 31.987 3.34333 30.0374 3.34333 27.6412V23.6818H2.94777C1.87334 23.6818 0.999435 22.79 0.999435 21.6937V16.847C0.999508 15.7509 1.87342 14.8592 2.94777 14.8592ZM12.5485 1.81806C11.9613 1.58678 11.3068 1.84685 11.0254 2.42125L9.00266 6.55419H24.6096L12.5485 1.81806ZM4.34715 27.6412C4.34715 29.4728 5.80731 30.9627 7.60218 30.9627H28.8627C30.6577 30.9627 32.1178 29.4727 32.1178 27.6412V10.8998C32.1178 9.06853 30.6576 7.57857 28.8627 7.57857H7.60218C5.80724 7.57857 4.34715 9.06853 4.34715 10.8998V14.8592H9.90168C12.2702 14.8592 14.2218 16.8117 14.2218 19.2675C14.2218 21.7015 12.2838 23.6818 9.90168 23.6818H4.34715V27.6412ZM2.00325 21.6937C2.00325 22.2252 2.42695 22.6575 2.94777 22.6575H9.90168C11.7304 22.6575 13.218 21.1368 13.218 19.2675C13.218 17.3787 11.7163 15.8835 9.90168 15.8835H2.94777C2.42695 15.8835 2.00325 16.3156 2.00325 16.8471V21.6937Z" fill="#E66309" stroke="#E66309" stroke-width="0.930573"/>
<path d="M9.40083 17.0927C10.5767 17.0927 11.5332 18.0714 11.5332 19.2746C11.5332 20.4742 10.5767 21.4502 9.40083 21.4502C8.22522 21.4502 7.26867 20.4742 7.26867 19.2746C7.26867 18.0714 8.22522 17.0927 9.40083 17.0927ZM9.40083 20.4259C10.023 20.4259 10.5294 19.9096 10.5294 19.2746C10.5294 18.6364 10.023 18.117 9.40083 18.117C8.77861 18.117 8.27249 18.6363 8.27249 19.2746C8.27249 19.9095 8.77861 20.4259 9.40083 20.4259Z" fill="#E66309" stroke="#E66309" stroke-width="0.930573"/>
</svg>
